<?xml version="1.0" encoding="UTF-8" standalone="no"?>
<svg
   xmlns:dc="http://purl.org/dc/elements/1.1/"
   xmlns:cc="http://creativecommons.org/ns#"
   xmlns:rdf="http://www.w3.org/1999/02/22-rdf-syntax-ns#"
   xmlns:svg="http://www.w3.org/2000/svg"
   xmlns="http://www.w3.org/2000/svg"
   xmlns:sodipodi="http://sodipodi.sourceforge.net/DTD/sodipodi-0.dtd"
   xmlns:inkscape="http://www.inkscape.org/namespaces/inkscape"
   width="467.35638pt"
   height="456.33456pt"
   viewBox="0 0 467.35639 456.33457"
   version="1.1"
   id="svg52"
   sodipodi:docname="Ässät_Logo.svg"
   inkscape:version="0.92.1 r15371">
  <metadata
     id="metadata56">
    <rdf:RDF>
      <cc:Work
         rdf:about="">
        <dc:format>image/svg+xml</dc:format>
        <dc:type
           rdf:resource="http://purl.org/dc/dcmitype/StillImage" />
        <dc:title></dc:title>
      </cc:Work>
    </rdf:RDF>
  </metadata>
  <sodipodi:namedview
     pagecolor="#ffffff"
     bordercolor="#666666"
     borderopacity="1"
     objecttolerance="10"
     gridtolerance="10"
     guidetolerance="10"
     inkscape:pageopacity="0"
     inkscape:pageshadow="2"
     inkscape:window-width="1366"
     inkscape:window-height="705"
     id="namedview54"
     showgrid="false"
     inkscape:zoom="0.36570248"
     inkscape:cx="-256.28479"
     inkscape:cy="393.16992"
     inkscape:window-x="-8"
     inkscape:window-y="-8"
     inkscape:window-maximized="1"
     inkscape:current-layer="surface0" />
  <defs
     id="defs37">
    <clipPath
       id="clip0">
      <rect
         width="500"
         height="484"
         id="rect34"
         x="0"
         y="0" />
    </clipPath>
  </defs>
  <g
     id="surface0"
     clip-path="url(#clip0)"
     transform="translate(-8.7464588,-18.92419)">
    <path
       style="opacity:1;fill:none;stroke:#ffffff;stroke-width:0.1;stroke-linecap:butt;stroke-linejoin:miter;stroke-miterlimit:10"
       d="M 0,0 H 500 V 484 H 0 Z m 0,0"
       id="path39"
       inkscape:connector-curvature="0" />
    <path
       style="opacity:1;fill:#ffffff;fill-rule:nonzero;stroke:none"
       d="m -736.25424,0 h 500 v 484 h -500 z m 0,0"
       id="path41"
       inkscape:connector-curvature="0" />
    <path
       style="opacity:1;fill:none;stroke:#000000;stroke-width:0.1;stroke-linecap:butt;stroke-linejoin:miter;stroke-miterlimit:10"
       d="m 223.49158,19.656982 c 36.44494,-2.692413 73.60284,2.54419 107.51902,16.307419 56.73351,22.417603 104.10056,68.040969 127.55634,124.469119 18.28522,43.10072 22.36804,92.04442 11.59552,137.59814 -8.03096,34.93678 -24.89293,67.72382 -48.14621,94.96466 -23.24237,27.28476 -52.90712,49.03093 -85.86856,63.09531 -41.71544,17.83775 -88.52693,23.36116 -133.26215,15.85965 -29.554,-4.89849 -58.13392,-15.52884 -83.73655,-31.07836 C 91.479904,424.15532 67.457016,401.50857 48.9599,375.00938 29.154251,346.53546 16.04509,313.4277 11.049866,279.10225 5.206314,238.10684 10.741913,195.46916 27.494263,157.55431 46.357117,114.14964 79.320709,77.223969 119.82214,52.85582 151.17088,33.918259 186.9958,22.553757 223.49158,19.656982 Z m 0,0"
       id="path43"
       inkscape:connector-curvature="0" />
    <path
       style="opacity:1;fill:#000000;fill-rule:nonzero;stroke:none"
       d="m 223.49158,19.656982 c 36.44494,-2.692413 73.60284,2.54419 107.51902,16.307419 56.73351,22.417603 104.10056,68.040969 127.55634,124.469119 18.28522,43.10072 22.36804,92.04442 11.59552,137.59814 -8.03096,34.93678 -24.89293,67.72382 -48.14621,94.96466 -23.24237,27.28476 -52.90712,49.03093 -85.86856,63.09531 -41.71544,17.83775 -88.52693,23.36116 -133.26215,15.85965 -29.554,-4.89849 -58.13392,-15.52884 -83.73655,-31.07836 C 91.479904,424.15532 67.457016,401.50857 48.9599,375.00938 29.154251,346.53546 16.04509,313.4277 11.049866,279.10225 5.206314,238.10684 10.741913,195.46916 27.494263,157.55431 46.357117,114.14964 79.320709,77.223969 119.82214,52.85582 151.17088,33.918259 186.9958,22.553757 223.49158,19.656982 Z m 0,0"
       id="path45"
       inkscape:connector-curvature="0" />
    <path
       style="opacity:1;fill:none;stroke:#ffffff;stroke-width:0.1;stroke-linecap:butt;stroke-linejoin:miter;stroke-miterlimit:10"
       d="m 190.76569,56.552628 c 32.72459,-8.419144 67.5413,-8.718735 100.38401,-0.730851 35.93512,8.629608 69.4506,27.288697 95.52726,53.500843 21.15872,20.93376 37.4051,46.80325 47.08671,74.94888 10.33028,29.90283 13.10315,62.38441 7.93592,93.60153 -4.01047,24.4028 -11.55645,48.43694 -23.93653,69.93125 -8.21144,14.16539 -18.69963,27.26709 -32.01724,36.94309 -13.23348,9.71062 -29.26824,16.06335 -45.74147,16.71255 -16.73371,-1.63495 -33.50778,-6.46857 -47.53797,-15.9612 -13.89469,-9.47437 -24.53366,-24.53505 -26.43893,-41.48251 13.00853,9.86564 26.68967,19.17131 42.10202,24.88227 17.96884,6.91666 38.40428,8.58469 56.7926,2.27138 20.13309,-6.64616 36.83042,-21.4463 48.14942,-39.12654 12.33951,-18.79628 16.98057,-41.90503 15.67271,-64.14772 -2.46858,-36.14298 -22.77051,-69.57413 -50.73901,-91.92999 -44.39281,-37.56653 -88.66722,-75.28047 -133.181,-112.69852 -14.96469,11.808105 -29.52118,24.163177 -44.3553,36.150024 -33.14893,27.204066 -66.38896,54.296936 -99.48123,81.569676 -19.507756,17.12135 -34.271718,39.90504 -41.14832,64.99087 -6.547638,23.79691 -5.006698,49.84705 4.633621,72.59335 9.494599,20.95119 25.844193,39.27323 46.812059,49.16391 16.15175,7.75194 34.99248,9.35294 52.33847,5.07018 16.33856,-3.63394 31.33909,-11.67613 44.94543,-21.23528 3.46912,-2.48149 6.72431,-5.26564 10.39048,-7.46461 -2.01683,14.86626 -10.28148,28.58575 -21.95472,37.90388 -14.68811,11.86655 -33.49832,17.52916 -52.03508,19.46842 -16.24531,-0.62482 -32.06666,-6.77869 -45.198421,-16.24167 C 86.768692,375.92522 76.394455,363.36983 68.207352,349.72228 58.307053,333.09154 51.359726,314.81291 46.842224,296.02321 39.125076,265.3251 38.394073,232.7928 45.914688,201.9817 52.789444,173.44754 66.20166,146.52551 84.908295,123.90565 111.8168,90.927795 149.56648,67.107529 190.76569,56.552628 Z m 0,0"
       id="path47"
       inkscape:connector-curvature="0" />
    <path
       style="opacity:1;fill:#ffffff;fill-rule:nonzero;stroke:none"
       d="m 190.76569,56.552628 c 32.72459,-8.419144 67.5413,-8.718735 100.38401,-0.730851 35.93512,8.629608 69.4506,27.288697 95.52726,53.500843 21.15872,20.93376 37.4051,46.80325 47.08671,74.94888 10.33028,29.90283 13.10315,62.38441 7.93592,93.60153 -4.01047,24.4028 -11.55645,48.43694 -23.93653,69.93125 -8.21144,14.16539 -18.69963,27.26709 -32.01724,36.94309 -13.23348,9.71062 -29.26824,16.06335 -45.74147,16.71255 -16.73371,-1.63495 -33.50778,-6.46857 -47.53797,-15.9612 -13.89469,-9.47437 -24.53366,-24.53505 -26.43893,-41.48251 13.00853,9.86564 26.68967,19.17131 42.10202,24.88227 17.96884,6.91666 38.40428,8.58469 56.7926,2.27138 20.13309,-6.64616 36.83042,-21.4463 48.14942,-39.12654 12.33951,-18.79628 16.98057,-41.90503 15.67271,-64.14772 -2.46858,-36.14298 -22.77051,-69.57413 -50.73901,-91.92999 -44.39281,-37.56653 -88.66722,-75.28047 -133.181,-112.69852 -14.96469,11.808105 -29.52118,24.163177 -44.3553,36.150024 -33.14893,27.204066 -66.38896,54.296936 -99.48123,81.569676 -19.507756,17.12135 -34.271718,39.90504 -41.14832,64.99087 -6.547638,23.79691 -5.006698,49.84705 4.633621,72.59335 9.494599,20.95119 25.844193,39.27323 46.812059,49.16391 16.15175,7.75194 34.99248,9.35294 52.33847,5.07018 16.33856,-3.63394 31.33909,-11.67613 44.94543,-21.23528 3.46912,-2.48149 6.72431,-5.26564 10.39048,-7.46461 -2.01683,14.86626 -10.28148,28.58575 -21.95472,37.90388 -14.68811,11.86655 -33.49832,17.52916 -52.03508,19.46842 -16.24531,-0.62482 -32.06666,-6.77869 -45.198421,-16.24167 C 86.768692,375.92522 76.394455,363.36983 68.207352,349.72228 58.307053,333.09154 51.359726,314.81291 46.842224,296.02321 39.125076,265.3251 38.394073,232.7928 45.914688,201.9817 52.789444,173.44754 66.20166,146.52551 84.908295,123.90565 111.8168,90.927795 149.56648,67.107529 190.76569,56.552628 Z m 0,0"
       id="path49"
       inkscape:connector-curvature="0" />
  </g>
</svg>
