<?xml version="1.0" encoding="UTF-8" standalone="no"?>
<!-- Created with Inkscape (http://www.inkscape.org/) -->

<svg
   xmlns:dc="http://purl.org/dc/elements/1.1/"
   xmlns:cc="http://creativecommons.org/ns#"
   xmlns:rdf="http://www.w3.org/1999/02/22-rdf-syntax-ns#"
   xmlns:svg="http://www.w3.org/2000/svg"
   xmlns="http://www.w3.org/2000/svg"
   xmlns:sodipodi="http://sodipodi.sourceforge.net/DTD/sodipodi-0.dtd"
   xmlns:inkscape="http://www.inkscape.org/namespaces/inkscape"
   width="450"
   height="525.48102"
   viewBox="0 0 450 525.48103"
   id="svg2"
   version="1.1"
   inkscape:version="0.91 r13725"
   sodipodi:docname="KalPa logo.svg">
  <defs
     id="defs4">
    <clipPath
       clipPathUnits="userSpaceOnUse"
       id="clipPath4796">
      <path
         d="m 202.001,349.52 27.281,0 0,31.128 -27.281,0 0,-31.128 z"
         id="path4798"
         inkscape:connector-curvature="0" />
    </clipPath>
    <clipPath
       clipPathUnits="userSpaceOnUse"
       id="clipPath4834">
      <path
         d="m 215.31808,385.18128 12.3294,-17.60821 -17.90401,-12.53652 -12.3294,17.60821 17.90401,12.53652 z"
         id="path4836"
         inkscape:connector-curvature="0" />
    </clipPath>
    <linearGradient
       x1="0"
       y1="0"
       x2="1"
       y2="0"
       gradientUnits="userSpaceOnUse"
       gradientTransform="matrix(7.2447872,-10.346627,-10.346627,-7.2447872,206.10174,378.18083)"
       spreadMethod="pad"
       id="linearGradient4838">
      <stop
         style="stop-opacity:1;stop-color:#7c7c7b"
         offset="0"
         id="stop4840" />
      <stop
         style="stop-opacity:1;stop-color:#000000"
         offset="1"
         id="stop4842" />
    </linearGradient>
    <clipPath
       clipPathUnits="userSpaceOnUse"
       id="clipPath4850">
      <path
         d="m 202.001,349.52 27.281,0 0,31.128 -27.281,0 0,-31.128 z"
         id="path4852"
         inkscape:connector-curvature="0" />
    </clipPath>
    <clipPath
       clipPathUnits="userSpaceOnUse"
       id="clipPath4872">
      <path
         d="m 216.78519,388.71424 14.6671,-20.94679 -21.50281,-15.05644 -14.6671,20.9468 21.50281,15.05643 z"
         id="path4874"
         inkscape:connector-curvature="0" />
    </clipPath>
    <linearGradient
       x1="0"
       y1="0"
       x2="1"
       y2="0"
       gradientUnits="userSpaceOnUse"
       gradientTransform="matrix(8.2525332,-11.785838,-11.785838,-8.2525332,206.0117,380.26187)"
       spreadMethod="pad"
       id="linearGradient4876">
      <stop
         style="stop-opacity:1;stop-color:#e63323"
         offset="0"
         id="stop4878" />
      <stop
         style="stop-opacity:1;stop-color:#c10c1a"
         offset="1"
         id="stop4880" />
    </linearGradient>
    <clipPath
       clipPathUnits="userSpaceOnUse"
       id="clipPath4888">
      <path
         d="m 202.001,349.52 27.281,0 0,31.128 -27.281,0 0,-31.128 z"
         id="path4890"
         inkscape:connector-curvature="0" />
    </clipPath>
    <clipPath
       clipPathUnits="userSpaceOnUse"
       id="clipPath4910">
      <path
         d="m 220.1269,385.0425 15.69979,-22.42162 -23.22594,-16.26298 -15.69979,22.42161 23.22594,16.26299 z"
         id="path4912"
         inkscape:connector-curvature="0" />
    </clipPath>
    <linearGradient
       x1="0"
       y1="0"
       x2="1"
       y2="0"
       gradientUnits="userSpaceOnUse"
       gradientTransform="matrix(3.3199589,-4.7413917,-4.7413917,-3.3199589,214.53563,368.06959)"
       spreadMethod="pad"
       id="linearGradient4914">
      <stop
         style="stop-opacity:1;stop-color:#ffdd00"
         offset="0"
         id="stop4916" />
      <stop
         style="stop-opacity:1;stop-color:#ffdd00"
         offset="0.199997"
         id="stop4918" />
      <stop
         style="stop-opacity:1;stop-color:#f0aa00"
         offset="0.850006"
         id="stop4920" />
      <stop
         style="stop-opacity:1;stop-color:#f0aa00"
         offset="1"
         id="stop4922" />
    </linearGradient>
    <clipPath
       clipPathUnits="userSpaceOnUse"
       id="clipPath4930">
      <path
         d="m 202.001,349.52 27.281,0 0,31.128 -27.281,0 0,-31.128 z"
         id="path4932"
         inkscape:connector-curvature="0" />
    </clipPath>
    <clipPath
       clipPathUnits="userSpaceOnUse"
       id="clipPath4968">
      <path
         d="m 210.26604,365.38553 3.58919,-5.12589 -5.05057,-3.53645 -3.58919,5.12589 5.05057,3.53645 z"
         id="path4970"
         inkscape:connector-curvature="0" />
    </clipPath>
    <linearGradient
       x1="0"
       y1="0"
       x2="1"
       y2="0"
       gradientUnits="userSpaceOnUse"
       gradientTransform="matrix(2.2560135,-3.2219207,-3.2219207,-2.2560135,208.41697,362.66322)"
       spreadMethod="pad"
       id="linearGradient4972">
      <stop
         style="stop-opacity:1;stop-color:#e63323"
         offset="0"
         id="stop4974" />
      <stop
         style="stop-opacity:1;stop-color:#e63323"
         offset="0.25"
         id="stop4976" />
      <stop
         style="stop-opacity:1;stop-color:#c10c1a"
         offset="0.520004"
         id="stop4978" />
      <stop
         style="stop-opacity:1;stop-color:#c10c1a"
         offset="1"
         id="stop4980" />
    </linearGradient>
    <clipPath
       clipPathUnits="userSpaceOnUse"
       id="clipPath4998">
      <path
         d="m 219.99775,371.87416 3.21639,-4.59348 -4.46341,-3.12531 -3.21639,4.59348 4.46341,3.12531 z"
         id="path5000"
         inkscape:connector-curvature="0" />
    </clipPath>
    <linearGradient
       x1="0"
       y1="0"
       x2="1"
       y2="0"
       gradientUnits="userSpaceOnUse"
       gradientTransform="matrix(2.2547711,-3.2201462,-3.2201462,-2.2547703,218.72689,369.90865)"
       spreadMethod="pad"
       id="linearGradient5002">
      <stop
         style="stop-opacity:1;stop-color:#e63323"
         offset="0"
         id="stop5004" />
      <stop
         style="stop-opacity:1;stop-color:#e63323"
         offset="0.25"
         id="stop5006" />
      <stop
         style="stop-opacity:1;stop-color:#c10c1a"
         offset="0.520004"
         id="stop5008" />
      <stop
         style="stop-opacity:1;stop-color:#c10c1a"
         offset="1"
         id="stop5010" />
    </linearGradient>
    <clipPath
       clipPathUnits="userSpaceOnUse"
       id="clipPath5028">
      <path
         d="m 217.25653,369.38636 3.01,-4.29872 -4.31609,-3.02216 -3.00999,4.29872 4.31608,3.02216 z"
         id="path5030"
         inkscape:connector-curvature="0" />
    </clipPath>
    <linearGradient
       x1="0"
       y1="0"
       x2="1"
       y2="0"
       gradientUnits="userSpaceOnUse"
       gradientTransform="matrix(2.2541764,-3.2192968,-3.2192968,-2.2541764,215.4769,367.62364)"
       spreadMethod="pad"
       id="linearGradient5032">
      <stop
         style="stop-opacity:1;stop-color:#e63323"
         offset="0"
         id="stop5034" />
      <stop
         style="stop-opacity:1;stop-color:#e63323"
         offset="0.25"
         id="stop5036" />
      <stop
         style="stop-opacity:1;stop-color:#c10c1a"
         offset="0.520004"
         id="stop5038" />
      <stop
         style="stop-opacity:1;stop-color:#c10c1a"
         offset="1"
         id="stop5040" />
    </linearGradient>
    <clipPath
       clipPathUnits="userSpaceOnUse"
       id="clipPath5058">
      <path
         d="m 214.10513,367.48747 3.42901,-4.89713 -4.88633,-3.42144 -3.42901,4.89713 4.88633,3.42144 z"
         id="path5060"
         inkscape:connector-curvature="0" />
    </clipPath>
    <linearGradient
       x1="0"
       y1="0"
       x2="1"
       y2="0"
       gradientUnits="userSpaceOnUse"
       gradientTransform="matrix(2.2547976,-3.2201844,-3.2201844,-2.2547976,212.06277,365.22342)"
       spreadMethod="pad"
       id="linearGradient5062">
      <stop
         style="stop-opacity:1;stop-color:#e63323"
         offset="0"
         id="stop5064" />
      <stop
         style="stop-opacity:1;stop-color:#e63323"
         offset="0.25"
         id="stop5066" />
      <stop
         style="stop-opacity:1;stop-color:#c10c1a"
         offset="0.520004"
         id="stop5068" />
      <stop
         style="stop-opacity:1;stop-color:#c10c1a"
         offset="1"
         id="stop5070" />
    </linearGradient>
    <clipPath
       clipPathUnits="userSpaceOnUse"
       id="clipPath5088">
      <path
         d="m 223.98927,374.43666 3.42908,-4.89723 -4.88641,-3.4215 -3.42907,4.89723 4.8864,3.4215 z"
         id="path5090"
         inkscape:connector-curvature="0" />
    </clipPath>
    <linearGradient
       x1="0"
       y1="0"
       x2="1"
       y2="0"
       gradientUnits="userSpaceOnUse"
       gradientTransform="matrix(2.2547976,-3.2201844,-3.2201844,-2.2547976,221.94691,372.17251)"
       spreadMethod="pad"
       id="linearGradient5092">
      <stop
         style="stop-opacity:1;stop-color:#e63323"
         offset="0"
         id="stop5094" />
      <stop
         style="stop-opacity:1;stop-color:#e63323"
         offset="0.25"
         id="stop5096" />
      <stop
         style="stop-opacity:1;stop-color:#c10c1a"
         offset="0.520004"
         id="stop5098" />
      <stop
         style="stop-opacity:1;stop-color:#c10c1a"
         offset="1"
         id="stop5100" />
    </linearGradient>
  </defs>
  <sodipodi:namedview
     id="base"
     pagecolor="#ffffff"
     bordercolor="#666666"
     borderopacity="1.0"
     inkscape:pageopacity="0.0"
     inkscape:pageshadow="2"
     inkscape:zoom="0.89617498"
     inkscape:cx="540.46169"
     inkscape:cy="174.89119"
     inkscape:document-units="px"
     inkscape:current-layer="layer1"
     showgrid="false"
     units="px"
     inkscape:window-width="1920"
     inkscape:window-height="1137"
     inkscape:window-x="-4"
     inkscape:window-y="-4"
     inkscape:window-maximized="1" />
  <metadata
     id="metadata7">
    <rdf:RDF>
      <cc:Work
         rdf:about="">
        <dc:format>image/svg+xml</dc:format>
        <dc:type
           rdf:resource="http://purl.org/dc/dcmitype/StillImage" />
        <dc:title></dc:title>
      </cc:Work>
    </rdf:RDF>
  </metadata>
  <g
     inkscape:label="Taso 1"
     inkscape:groupmode="layer"
     id="layer1"
     transform="translate(0,-526.88114)">
    <g
       id="g9567"
       transform="matrix(16.956726,0,0,-16.954237,-3436.7374,6979.3394)">
      <g
         id="g4792">
        <g
           clip-path="url(#clipPath4796)"
           id="g4794">
          <g
             transform="translate(224.0797,375.9702)"
             id="g4800">
            <path
               inkscape:connector-curvature="0"
               id="path4802"
               style="fill:#ffffff;fill-opacity:1;fill-rule:nonzero;stroke:none"
               d="m 0,0 c -6.616,-3.409 -14.277,-1.108 -19.666,4.61 -1.903,-4.478 -2.344,-10.507 -0.811,-16.07 1.533,-5.563 5.042,-10.659 12.242,-14.923 5.203,2.435 7.636,5.197 9.557,8.262 1.902,3.036 3.301,6.369 3.813,10.932 C 3.423,-4.793 1.712,-2.396 0,0" />
          </g>
          <g
             transform="translate(224.0797,375.9702)"
             id="g4804">
            <path
               inkscape:connector-curvature="0"
               id="path4806"
               style="fill:none;stroke:#000000;stroke-width:0.00073722;stroke-linecap:butt;stroke-linejoin:miter;stroke-miterlimit:4;stroke-dasharray:none;stroke-opacity:1"
               d="m 0,0 c -6.616,-3.409 -14.277,-1.108 -19.666,4.61 -1.903,-4.478 -2.344,-10.507 -0.811,-16.07 1.533,-5.563 5.042,-10.659 12.242,-14.923 5.203,2.435 7.636,5.197 9.557,8.262 1.902,3.036 3.301,6.369 3.813,10.932 C 3.423,-4.793 1.712,-2.396 0,0 Z" />
          </g>
          <g
             transform="translate(221.1096,357.6908)"
             id="g4808">
            <path
               inkscape:connector-curvature="0"
               id="path4810"
               style="fill:#12110c;fill-opacity:1;fill-rule:nonzero;stroke:none"
               d="m 0,0 c -0.064,-0.177 -0.162,-0.306 -0.37,-0.453 -0.207,-0.146 -0.524,-0.309 -1.071,-0.314 -0.027,0.101 -0.054,0.203 -0.08,0.304 0.501,0.083 0.853,0.278 0.897,0.541 -0.264,-0.15 -0.481,-0.117 -0.646,-0.047 -0.165,0.071 -0.277,0.178 -0.339,0.319 -0.061,0.141 -0.072,0.314 -0.033,0.47 0.039,0.156 0.126,0.294 0.231,0.397 0.105,0.104 0.226,0.173 0.377,0.207 0.15,0.033 0.33,0.031 0.495,-0.01 0.166,-0.041 0.316,-0.12 0.424,-0.258 C -0.007,1.018 0.057,0.821 0.075,0.611 0.093,0.401 0.064,0.177 0,0 m -1.825,-0.347 -1.54,0 0,0.402 c 0.277,0.107 0.44,0.236 0.56,0.338 0.119,0.102 0.194,0.177 0.223,0.263 0.029,0.085 0.012,0.18 -0.088,0.239 -0.099,0.059 -0.282,0.082 -0.549,-0.084 -0.06,0.13 -0.121,0.261 -0.182,0.392 0.417,0.239 0.672,0.252 0.874,0.226 0.295,-0.037 0.478,-0.157 0.563,-0.31 0.031,-0.056 0.049,-0.117 0.06,-0.188 C -1.888,0.823 -1.888,0.692 -2.076,0.446 -2.119,0.39 -2.172,0.328 -2.469,0.092 c 0.215,0.042 0.429,0.084 0.644,0.126 l 0,-0.565 z M -3.611,0 c -0.064,-0.177 -0.162,-0.306 -0.37,-0.453 -0.207,-0.146 -0.524,-0.309 -1.071,-0.314 -0.026,0.101 -0.053,0.203 -0.08,0.304 0.501,0.083 0.853,0.278 0.897,0.541 -0.264,-0.15 -0.481,-0.117 -0.646,-0.047 -0.165,0.071 -0.277,0.178 -0.339,0.319 -0.061,0.141 -0.072,0.314 -0.033,0.47 0.039,0.156 0.127,0.294 0.231,0.397 0.105,0.104 0.226,0.173 0.377,0.207 0.15,0.033 0.33,0.031 0.496,-0.01 0.165,-0.041 0.315,-0.12 0.423,-0.258 C -3.618,1.018 -3.553,0.821 -3.535,0.611 -3.518,0.401 -3.547,0.177 -3.611,0 m -1.933,-0.347 -0.584,0 0,1.125 -0.34,0 0,0.347 0.681,0.279 0.243,0 0,-1.751 z m -6.065,-0.413 c 0.401,-0.469 0.821,-0.92 1.258,-1.356 0.534,-0.531 1.092,-1.038 1.67,-1.52 0.535,-0.447 1.086,-0.874 1.651,-1.282 0.605,-0.436 1.225,-0.85 1.856,-1.245 0.667,0.336 1.321,0.699 1.956,1.094 0.423,0.263 0.838,0.541 1.241,0.835 0.636,0.463 1.244,0.967 1.813,1.511 0.262,0.251 0.517,0.512 0.763,0.78 0.236,0.258 0.465,0.524 0.685,0.796 0.218,0.268 0.427,0.543 0.63,0.822 0.203,0.28 0.398,0.564 0.588,0.852 0.095,0.144 0.188,0.29 0.281,0.436 0.164,0.259 0.324,0.52 0.479,0.785 0.325,0.551 0.632,1.114 0.914,1.689 0.312,0.632 0.594,1.28 0.845,1.939 0.263,0.692 0.49,1.398 0.683,2.113 0.127,0.473 0.239,0.95 0.347,1.448 0.184,0.853 0.356,1.768 0.467,3.012 C 0.476,7.712 -5.566,3.476 -11.609,-0.76" />
          </g>
          <g
             transform="translate(220.3264,358.6574)"
             id="g4812">
            <path
               inkscape:connector-curvature="0"
               id="path4814"
               style="fill:#12110c;fill-opacity:1;fill-rule:nonzero;stroke:none"
               d="m 0,0 c -0.074,0 -0.138,-0.039 -0.181,-0.096 -0.043,-0.057 -0.064,-0.129 -0.064,-0.199 0,-0.07 0.021,-0.142 0.064,-0.199 0.043,-0.057 0.107,-0.096 0.181,-0.096 0.074,0 0.138,0.039 0.181,0.096 0.043,0.057 0.064,0.129 0.064,0.199 0,0.07 -0.021,0.142 -0.064,0.199 C 0.138,-0.039 0.074,0 0,0" />
          </g>
          <g
             transform="translate(216.7156,358.6574)"
             id="g4816">
            <path
               inkscape:connector-curvature="0"
               id="path4818"
               style="fill:#12110c;fill-opacity:1;fill-rule:nonzero;stroke:none"
               d="m 0,0 c -0.074,0 -0.138,-0.039 -0.181,-0.096 -0.043,-0.057 -0.064,-0.129 -0.064,-0.199 0,-0.07 0.021,-0.142 0.064,-0.199 0.043,-0.057 0.107,-0.096 0.181,-0.096 0.074,0 0.138,0.039 0.181,0.096 0.043,0.057 0.064,0.129 0.064,0.199 0,0.07 -0.021,0.142 -0.064,0.199 C 0.138,-0.039 0.074,0 0,0" />
          </g>
        </g>
      </g>
      <g
         id="g4820">
        <g
           id="g4822">
          <g
             id="g4828">
            <g
               id="g4830">
              <g
                 clip-path="url(#clipPath4834)"
                 id="g4832">
                <path
                   inkscape:connector-curvature="0"
                   id="path4844"
                   style="fill:url(#linearGradient4838);stroke:none"
                   d="m 204.946,376.651 c -0.123,-0.549 -0.225,-1.102 -0.307,-1.658 l 0,0 c -0.087,-0.59 -0.151,-1.184 -0.194,-1.779 l 0,0 c -0.043,-0.609 -0.064,-1.218 -0.062,-1.828 l 0,0 c 0.002,-1.245 0.098,-2.489 0.287,-3.719 l 0,0 c 0.096,-0.621 0.215,-1.238 0.359,-1.85 l 0,0 c 0.144,-0.612 0.312,-1.22 0.507,-1.818 l 0,0 c 0.143,-0.44 0.299,-0.875 0.47,-1.304 l 0,0 c 4.892,3.429 9.783,6.858 14.674,10.287 l 0,0 c -0.238,-0.047 -0.476,-0.09 -0.716,-0.126 l 0,0 c -0.846,-0.131 -1.704,-0.191 -2.56,-0.184 l 0,0 c -0.852,0.006 -1.704,0.081 -2.545,0.218 l 0,0 c -0.844,0.137 -1.678,0.337 -2.494,0.594 l 0,0 c -0.825,0.26 -1.632,0.577 -2.414,0.944 l 0,0 c -0.81,0.381 -1.595,0.815 -2.349,1.296 l 0,0 c -0.852,0.543 -1.667,1.146 -2.44,1.799 l 0,0 c -0.078,-0.289 -0.15,-0.58 -0.216,-0.872" />
              </g>
            </g>
          </g>
        </g>
      </g>
      <g
         id="g4846">
        <g
           clip-path="url(#clipPath4850)"
           id="g4848">
          <g
             transform="translate(209.3009,370.1083)"
             id="g4854">
            <path
               inkscape:connector-curvature="0"
               id="path4856"
               style="fill:#ffffff;fill-opacity:1;fill-rule:nonzero;stroke:none"
               d="M 0,0 0.226,0.392 0.453,0 0,0 Z M 0.226,-0.604 0,-0.212 l 0.453,0 -0.227,-0.392 z m -0.636,-0.106 0.226,0.392 0.227,-0.392 -0.453,0 z m -0.184,0.106 -0.226,0.392 0.453,0 -0.227,-0.392 z m 0,0.996 L -0.367,0 -0.82,0 -0.594,0.392 Z m 0.637,0.106 -0.227,-0.392 -0.226,0.392 0.453,0 z M 2.319,0.271 C 2.131,0.298 1.952,0.182 1.899,0 l -0.138,0 0,0.289 -0.212,0 0,-0.289 -0.227,0 0,0.37 -0.212,0 L 1.11,0 0.698,0 C 0.581,0.201 0.465,0.403 0.349,0.604 0.418,0.723 0.486,0.842 0.555,0.962 L 0.875,0.777 C 0.911,0.838 0.946,0.899 0.981,0.96 0.875,1.022 0.768,1.084 0.661,1.145 0.699,1.211 0.737,1.276 0.774,1.341 0.858,1.293 0.941,1.245 1.025,1.197 1.06,1.258 1.096,1.319 1.131,1.38 1.047,1.428 0.964,1.477 0.88,1.525 0.903,1.565 0.927,1.605 0.95,1.645 1.134,1.599 1.323,1.696 1.394,1.872 1.465,2.048 1.395,2.249 1.231,2.344 1.067,2.439 0.858,2.399 0.741,2.249 0.624,2.1 0.635,1.888 0.766,1.751 0.743,1.711 0.72,1.671 0.697,1.631 0.613,1.679 0.53,1.727 0.446,1.776 0.411,1.714 0.376,1.653 0.34,1.592 0.424,1.544 0.507,1.496 0.591,1.447 0.553,1.382 0.515,1.316 0.478,1.251 0.371,1.313 0.264,1.374 0.157,1.436 0.122,1.375 0.087,1.314 0.051,1.252 0.158,1.191 0.265,1.129 0.372,1.068 0.303,0.948 0.234,0.829 0.165,0.71 l -0.697,0 c -0.069,0.119 -0.138,0.238 -0.207,0.358 0.107,0.061 0.214,0.123 0.32,0.184 -0.035,0.062 -0.07,0.123 -0.106,0.184 -0.106,-0.062 -0.213,-0.123 -0.32,-0.185 -0.037,0.065 -0.075,0.131 -0.113,0.196 0.083,0.049 0.167,0.097 0.251,0.145 -0.036,0.061 -0.071,0.122 -0.107,0.184 -0.083,-0.049 -0.167,-0.097 -0.25,-0.145 -0.023,0.04 -0.046,0.08 -0.069,0.12 0.131,0.137 0.142,0.349 0.025,0.498 -0.117,0.15 -0.326,0.19 -0.49,0.095 -0.165,-0.095 -0.234,-0.296 -0.163,-0.472 0.071,-0.175 0.26,-0.273 0.444,-0.227 0.023,-0.04 0.046,-0.08 0.069,-0.12 -0.083,-0.048 -0.167,-0.097 -0.25,-0.145 0.035,-0.061 0.07,-0.122 0.106,-0.183 0.083,0.048 0.167,0.096 0.25,0.144 0.038,-0.065 0.076,-0.13 0.114,-0.196 C -1.135,1.084 -1.242,1.022 -1.349,0.96 -1.313,0.899 -1.278,0.838 -1.243,0.777 -1.136,0.838 -1.029,0.9 -0.922,0.962 L -0.716,0.604 C -0.832,0.403 -0.949,0.201 -1.065,0 l -0.412,0 0,0.37 -0.213,0 0,-0.37 -0.226,0 0,0.289 -0.212,0 0,-0.289 -0.138,0 c -0.053,0.182 -0.232,0.298 -0.42,0.271 -0.187,-0.027 -0.327,-0.187 -0.327,-0.377 0,-0.19 0.14,-0.35 0.327,-0.377 0.188,-0.027 0.367,0.089 0.42,0.271 l 0.138,0 0,-0.289 0.212,0 0,0.289 0.226,0 0,-0.37 0.213,0 0,0.37 0.412,0 c 0.116,-0.201 0.233,-0.403 0.349,-0.604 l -0.206,-0.358 c -0.107,0.062 -0.214,0.124 -0.321,0.185 -0.035,-0.061 -0.07,-0.122 -0.106,-0.183 0.107,-0.062 0.214,-0.124 0.321,-0.185 -0.038,-0.066 -0.076,-0.131 -0.114,-0.196 -0.083,0.048 -0.167,0.096 -0.25,0.144 -0.036,-0.061 -0.071,-0.122 -0.106,-0.183 0.083,-0.049 0.167,-0.097 0.25,-0.145 -0.023,-0.04 -0.046,-0.08 -0.069,-0.12 -0.184,0.046 -0.373,-0.051 -0.444,-0.227 -0.071,-0.176 -0.002,-0.378 0.163,-0.472 0.164,-0.095 0.373,-0.055 0.49,0.095 0.117,0.149 0.106,0.361 -0.025,0.498 0.023,0.04 0.046,0.08 0.069,0.12 0.083,-0.048 0.167,-0.096 0.25,-0.145 0.036,0.062 0.071,0.123 0.107,0.184 -0.084,0.048 -0.168,0.096 -0.251,0.145 0.038,0.065 0.076,0.13 0.113,0.196 0.107,-0.062 0.214,-0.123 0.32,-0.185 0.036,0.061 0.071,0.122 0.106,0.184 -0.106,0.061 -0.213,0.123 -0.32,0.184 0.069,0.12 0.138,0.239 0.207,0.358 l 0.697,0 C 0.234,-1.041 0.303,-1.16 0.372,-1.28 0.265,-1.341 0.158,-1.403 0.051,-1.464 0.087,-1.526 0.122,-1.587 0.157,-1.648 0.264,-1.586 0.371,-1.525 0.478,-1.463 0.515,-1.529 0.553,-1.594 0.591,-1.659 0.507,-1.708 0.424,-1.756 0.34,-1.804 0.376,-1.865 0.411,-1.926 0.446,-1.988 0.53,-1.939 0.613,-1.891 0.697,-1.843 0.72,-1.883 0.743,-1.923 0.766,-1.963 0.635,-2.1 0.624,-2.312 0.741,-2.461 c 0.117,-0.15 0.326,-0.19 0.49,-0.095 0.164,0.094 0.234,0.296 0.163,0.472 -0.071,0.176 -0.26,0.273 -0.444,0.227 -0.023,0.04 -0.047,0.08 -0.07,0.12 0.084,0.048 0.167,0.096 0.251,0.145 C 1.096,-1.531 1.06,-1.47 1.025,-1.409 0.941,-1.457 0.858,-1.505 0.774,-1.553 c -0.037,0.065 -0.075,0.13 -0.113,0.196 0.107,0.061 0.214,0.123 0.32,0.185 -0.035,0.061 -0.07,0.122 -0.106,0.183 l -0.32,-0.185 c -0.069,0.12 -0.137,0.239 -0.206,0.358 0.116,0.201 0.232,0.403 0.349,0.604 l 0.412,0 0,-0.37 0.212,0 0,0.37 0.227,0 0,-0.289 0.212,0 0,0.289 0.138,0 c 0.053,-0.182 0.232,-0.298 0.419,-0.271 0.188,0.027 0.328,0.187 0.328,0.377 0,0.19 -0.14,0.35 -0.327,0.377" />
          </g>
        </g>
      </g>
      <g
         id="g4858">
        <g
           id="g4860">
          <g
             id="g4866">
            <g
               id="g4868">
              <g
                 clip-path="url(#clipPath4872)"
                 id="g4870">
                <path
                   inkscape:connector-curvature="0"
                   id="path4882"
                   style="fill:url(#linearGradient4876);stroke:none"
                   d="m 203.987,376.97 c -0.14,-0.605 -0.254,-1.216 -0.344,-1.83 l 0,0 c -0.091,-0.616 -0.157,-1.234 -0.203,-1.854 l 0,0 c -0.045,-0.633 -0.066,-1.267 -0.064,-1.902 l 0,0 c 0.003,-1.295 0.102,-2.59 0.299,-3.87 l 0,0 c 0.099,-0.647 0.224,-1.291 0.374,-1.929 l 0,0 c 0.15,-0.639 0.327,-1.273 0.529,-1.898 l 0,0 c 0.175,-0.535 0.368,-1.064 0.582,-1.585 l 0,0 c 0.084,0.058 0.168,0.117 0.252,0.176 l 0,0 c -0.201,0.494 -0.384,0.995 -0.549,1.502 l 0,0 c -0.2,0.617 -0.374,1.243 -0.523,1.875 l 0,0 c -0.148,0.63 -0.27,1.265 -0.369,1.904 l 0,0 c -0.194,1.265 -0.292,2.545 -0.296,3.825 l 0,0 c -0.001,0.627 0.02,1.255 0.065,1.88 l 0,0 c 0.043,0.613 0.11,1.224 0.199,1.832 l 0,0 c 0.088,0.597 0.198,1.19 0.333,1.779 l 0,0 c 0.148,0.644 0.324,1.283 0.532,1.912 l 0,0 c 0.929,-0.864 1.928,-1.652 2.99,-2.345 l 0,0 c 0.685,-0.446 1.395,-0.854 2.128,-1.215 l 0,0 c 0.803,-0.396 1.633,-0.736 2.484,-1.013 l 0,0 c 0.616,-0.201 1.242,-0.368 1.877,-0.499 l 0,0 c 0.858,-0.176 1.729,-0.286 2.603,-0.323 l 0,0 c 0.436,-0.018 0.874,-0.018 1.311,10e-4 l 0,0 c 0.439,0.018 0.877,0.056 1.314,0.112 l 0,0 c 0.437,0.057 0.873,0.134 1.305,0.229 l 0,0 c 0.436,0.096 0.87,0.212 1.297,0.347 l 0,0 c 0.084,0.027 0.168,0.054 0.252,0.082 l 0,0 c 0.332,0.233 0.663,0.466 0.995,0.699 l 0,0 c -0.37,-0.158 -0.746,-0.3 -1.128,-0.427 l 0,0 c -0.383,-0.127 -0.772,-0.239 -1.164,-0.335 l 0,0 c -0.386,-0.094 -0.777,-0.173 -1.169,-0.235 l 0,0 c -0.667,-0.107 -1.34,-0.168 -2.015,-0.183 l 0,0 c -0.393,-0.009 -0.786,-0.003 -1.178,0.019 l 0,0 c -0.394,0.021 -0.785,0.057 -1.176,0.108 l 0,0 c -0.784,0.102 -1.56,0.263 -2.322,0.475 l 0,0 c -0.773,0.216 -1.53,0.485 -2.267,0.803 l 0,0 c -0.373,0.16 -0.74,0.333 -1.102,0.516 l 0,0 c -0.632,0.322 -1.246,0.678 -1.841,1.064 l 0,0 c -0.606,0.392 -1.19,0.817 -1.752,1.269 l 0,0 c -0.547,0.438 -1.071,0.902 -1.573,1.388 l 0,0 c -0.277,-0.77 -0.504,-1.557 -0.686,-2.354" />
              </g>
            </g>
          </g>
        </g>
      </g>
      <g
         id="g4884">
        <g
           clip-path="url(#clipPath4888)"
           id="g4886">
          <g
             transform="translate(228.2144,368.8175)"
             id="g4892">
            <path
               inkscape:connector-curvature="0"
               id="path4894"
               style="fill:#c10c1a;fill-opacity:1;fill-rule:nonzero;stroke:none"
               d="m 0,0 c -0.098,-0.854 -0.233,-1.704 -0.412,-2.545 -0.103,-0.488 -0.221,-0.973 -0.354,-1.453 -0.219,-0.787 -0.479,-1.562 -0.78,-2.32 -0.145,-0.365 -0.299,-0.727 -0.463,-1.084 -0.206,-0.451 -0.427,-0.895 -0.66,-1.333 -0.335,-0.627 -0.696,-1.241 -1.077,-1.842 -0.205,-0.323 -0.416,-0.642 -0.634,-0.955 -0.22,-0.315 -0.448,-0.625 -0.684,-0.927 -0.241,-0.308 -0.491,-0.609 -0.752,-0.902 -0.551,-0.619 -1.148,-1.199 -1.781,-1.735 -0.346,-0.291 -0.702,-0.57 -1.068,-0.836 -0.377,-0.275 -0.764,-0.537 -1.159,-0.786 -0.386,-0.244 -0.78,-0.476 -1.179,-0.697 -0.432,-0.24 -0.87,-0.467 -1.313,-0.683 -0.706,0.431 -1.398,0.885 -2.072,1.365 -0.628,0.448 -1.241,0.918 -1.834,1.413 -0.6,0.5 -1.18,1.025 -1.733,1.577 -0.466,0.464 -0.914,0.947 -1.34,1.449 -0.082,-0.058 -0.164,-0.116 -0.246,-0.173 0.436,-0.515 0.896,-1.011 1.374,-1.488 0.562,-0.56 1.151,-1.093 1.76,-1.601 0.617,-0.515 1.256,-1.003 1.912,-1.468 0.703,-0.498 1.426,-0.969 2.163,-1.415 0.473,0.228 0.939,0.467 1.399,0.72 0.425,0.234 0.843,0.48 1.253,0.738 0.406,0.256 0.804,0.524 1.192,0.807 0.371,0.27 0.733,0.553 1.084,0.85 0.645,0.544 1.251,1.134 1.812,1.764 0.265,0.297 0.519,0.603 0.764,0.916 0.24,0.307 0.471,0.621 0.693,0.94 0.221,0.317 0.435,0.64 0.642,0.967 0.385,0.607 0.75,1.227 1.088,1.862 0.237,0.443 0.46,0.892 0.669,1.349 0.165,0.361 0.322,0.727 0.469,1.097 0.305,0.769 0.568,1.554 0.789,2.35 0.135,0.487 0.255,0.977 0.36,1.471 0.157,0.743 0.281,1.493 0.376,2.246 C 0.172,-0.241 0.086,-0.121 0,0" />
          </g>
        </g>
      </g>
      <g
         id="g4896">
        <g
           id="g4898">
          <g
             id="g4904">
            <g
               id="g4906">
              <g
                 clip-path="url(#clipPath4910)"
                 id="g4908">
                <path
                   inkscape:connector-curvature="0"
                   id="path4924"
                   style="fill:url(#linearGradient4914);stroke:none"
                   d="m 205.361,361.629 c 0.241,-0.549 0.505,-1.087 0.791,-1.613 l 0,0 c 0.33,-0.606 0.69,-1.196 1.077,-1.767 l 0,0 c 0.362,-0.534 0.748,-1.052 1.156,-1.552 l 0,0 c 6.327,4.436 12.654,8.872 18.981,13.307 l 0,0 c -1.119,1.567 -2.237,3.133 -3.356,4.699 l 0,0 c -6.216,-4.358 -12.433,-8.716 -18.649,-13.074" />
              </g>
            </g>
          </g>
        </g>
      </g>
      <g
         id="g4926">
        <g
           clip-path="url(#clipPath4930)"
           id="g4928">
          <g
             transform="translate(219.9297,368.6393)"
             id="g4934">
            <path
               inkscape:connector-curvature="0"
               id="path4936"
               style="fill:#ffffff;fill-opacity:1;fill-rule:nonzero;stroke:none"
               d="m 0,0 c -0.008,-0.051 -0.027,-0.1 -0.055,-0.144 -0.025,-0.04 -0.058,-0.075 -0.096,-0.102 -0.085,-0.06 -0.17,-0.12 -0.255,-0.18 l -0.446,0.634 c 0.085,0.06 0.17,0.12 0.255,0.18 0.039,0.026 0.083,0.045 0.129,0.056 0.05,0.011 0.103,0.012 0.154,0.003 0.051,-0.01 0.101,-0.03 0.144,-0.059 0.04,-0.027 0.076,-0.061 0.104,-0.101 0.028,-0.04 0.048,-0.084 0.06,-0.132 C 0.006,0.105 0.008,0.052 0,0 m 0.592,-1.291 c 0.742,0.535 0.916,1.567 0.39,2.315 -0.526,0.748 -1.556,0.934 -2.31,0.416 -0.449,-0.315 -0.897,-0.63 -1.346,-0.946 0.835,-1.187 1.669,-2.373 2.503,-3.56 0.362,0.254 0.723,0.508 1.085,0.762 -0.194,0.277 -0.389,0.553 -0.583,0.83 0.087,0.061 0.174,0.122 0.261,0.183" />
          </g>
          <g
             transform="translate(210.8824,359.3322)"
             id="g4938">
            <path
               inkscape:connector-curvature="0"
               id="path4940"
               style="fill:#ffffff;fill-opacity:1;fill-rule:nonzero;stroke:none"
               d="M 0,0 C -0.241,0.343 -0.482,0.686 -0.723,1.028 -0.762,1.083 -0.832,1.101 -0.889,1.061 -0.92,1.039 -0.952,1.016 -0.984,0.994 -0.963,0.964 -0.941,0.933 -0.92,0.903 -0.918,0.9 -0.916,0.897 -0.914,0.894 l 0.723,-1.028 c -0.362,-0.254 -0.723,-0.509 -1.085,-0.763 -0.239,0.34 -0.478,0.68 -0.717,1.02 -0.006,0.009 -0.012,0.017 -0.018,0.026 -0.589,0.838 -1.179,1.677 -1.768,2.515 0.362,0.254 0.723,0.508 1.085,0.762 0.16,-0.228 0.321,-0.456 0.482,-0.685 -0.074,0.29 -0.147,0.58 -0.22,0.87 0.372,0.261 0.745,0.523 1.118,0.785 L -0.812,2.408 C -0.337,2.405 0.098,2.171 0.368,1.782 0.607,1.442 0.846,1.103 1.085,0.763 0.723,0.508 0.362,0.254 0,0" />
          </g>
          <g
             transform="translate(216.902,363.5643)"
             id="g4942">
            <path
               inkscape:connector-curvature="0"
               id="path4944"
               style="fill:#ffffff;fill-opacity:1;fill-rule:nonzero;stroke:none"
               d="M 0,0 -2.503,3.561 -1.419,4.323 0.359,1.795 1.18,2.373 1.906,1.34 0,0 Z" />
          </g>
          <g
             transform="translate(212.9126,363.4153)"
             id="g4946">
            <path
               inkscape:connector-curvature="0"
               id="path4948"
               style="fill:#ffffff;fill-opacity:1;fill-rule:nonzero;stroke:none"
               d="m 0,0 c -0.096,0.136 -0.191,0.272 -0.287,0.409 -0.056,0.077 -0.081,0.161 -0.067,0.258 0.014,0.092 0.065,0.174 0.141,0.227 0.075,0.053 0.17,0.073 0.261,0.055 C 0.144,0.93 0.214,0.877 0.268,0.799 0.364,0.663 0.46,0.527 0.556,0.391 0.37,0.26 0.185,0.13 0,0 M 1.355,1.559 C 0.828,2.318 -0.207,2.513 -0.969,1.984 -1.727,1.457 -1.912,0.413 -1.381,-0.342 c 0.004,-0.005 0.008,-0.01 0.011,-0.015 0.512,-0.728 1.023,-1.455 1.535,-2.183 0.361,0.254 0.723,0.509 1.085,0.763 -0.163,0.231 -0.325,0.461 -0.487,0.692 l 0.555,0.391 C 1.48,-0.925 1.643,-1.156 1.805,-1.387 2.167,-1.133 2.528,-0.878 2.89,-0.624 2.378,0.104 1.867,0.831 1.355,1.559" />
          </g>
          <g
             transform="translate(222.7967,370.3644)"
             id="g4950">
            <path
               inkscape:connector-curvature="0"
               id="path4952"
               style="fill:#ffffff;fill-opacity:1;fill-rule:nonzero;stroke:none"
               d="m 0,0 c -0.096,0.136 -0.192,0.272 -0.287,0.409 -0.056,0.078 -0.081,0.161 -0.067,0.258 0.014,0.092 0.065,0.174 0.141,0.227 0.075,0.053 0.17,0.073 0.261,0.055 C 0.144,0.93 0.214,0.878 0.268,0.799 0.364,0.663 0.46,0.527 0.556,0.391 0.37,0.26 0.185,0.13 0,0 m 1.355,1.559 c -0.527,0.759 -1.562,0.954 -2.324,0.425 -0.758,-0.527 -0.943,-1.57 -0.412,-2.326 0.004,-0.005 0.008,-0.01 0.011,-0.015 0.512,-0.728 1.023,-1.455 1.535,-2.183 0.361,0.254 0.723,0.509 1.085,0.763 -0.163,0.231 -0.325,0.462 -0.487,0.692 0.185,0.131 0.37,0.261 0.555,0.391 0.162,-0.231 0.325,-0.462 0.487,-0.693 0.362,0.255 0.723,0.509 1.085,0.763 C 2.378,0.104 1.867,0.831 1.355,1.559" />
          </g>
        </g>
      </g>
      <g
         id="g4954">
        <g
           id="g4956">
          <g
             id="g4962">
            <g
               id="g4964">
              <g
                 clip-path="url(#clipPath4968)"
                 id="g4966">
                <path
                   inkscape:connector-curvature="0"
                   id="path4982"
                   style="fill:url(#linearGradient4972);stroke:none"
                   d="m 208.692,362.853 0.428,-1.698 c -0.013,-0.01 -0.028,-0.02 -0.042,-0.031 l 0,0 c -0.314,0.446 -0.627,0.893 -0.941,1.339 l 0,0 c -0.246,-0.173 -0.493,-0.345 -0.738,-0.519 l 0,0 c 0.549,-0.78 1.098,-1.561 1.647,-2.341 l 0,0 c 0.005,-0.009 0.011,-0.017 0.017,-0.025 l 0,0 c 0.199,-0.283 0.397,-0.565 0.596,-0.847 l 0,0 c 0.245,0.173 0.491,0.346 0.737,0.518 l 0,0 c -0.2,0.286 -0.401,0.571 -0.602,0.856 l 0,0 c -0.001,0.003 -0.003,0.005 -0.005,0.007 l 0,0 c -0.062,0.089 -0.124,0.177 -0.186,0.265 l 0,0 c 0.09,0.063 0.179,0.126 0.269,0.19 l 0,0 c 0.152,0.107 0.355,0.066 0.461,-0.085 l 0,0 c 0.2,-0.284 0.4,-0.569 0.601,-0.855 l 0,0 c 0.246,0.173 0.492,0.346 0.738,0.52 l 0,0 c -0.199,0.281 -0.397,0.564 -0.596,0.846 l 0,0 c -0.231,0.333 -0.6,0.532 -1.007,0.535 l 0,0 c -0.055,10e-4 -0.11,10e-4 -0.164,10e-4 l 0,0 c -0.013,0.053 -0.027,0.106 -0.04,0.159 l 0,0 c -0.142,0.564 -0.285,1.127 -0.427,1.69 l 0,0 c -0.249,-0.175 -0.498,-0.349 -0.746,-0.525" />
              </g>
            </g>
          </g>
        </g>
      </g>
      <g
         id="g4984">
        <g
           id="g4986">
          <g
             id="g4992">
            <g
               id="g4994">
              <g
                 clip-path="url(#clipPath4998)"
                 id="g4996">
                <path
                   inkscape:connector-curvature="0"
                   id="path5012"
                   style="fill:url(#linearGradient5002);stroke:none"
                   d="m 218.723,369.905 c -0.391,-0.274 -0.782,-0.549 -1.171,-0.823 l 0,0 c 0.752,-1.071 1.505,-2.142 2.259,-3.214 l 0,0 c 0.245,0.174 0.492,0.347 0.738,0.519 l 0,0 c -0.195,0.277 -0.389,0.553 -0.584,0.83 l 0,0 c 0.144,0.101 0.289,0.203 0.433,0.304 l 0,0 c 0.648,0.466 0.799,1.367 0.34,2.021 l 0,0 c -0.283,0.403 -0.735,0.619 -1.193,0.619 l 0,0 c -0.284,0 -0.571,-0.083 -0.822,-0.256 m 0.059,-1.006 c 0.143,0.101 0.287,0.202 0.43,0.303 l 0,0 c 0.358,0.245 0.849,0.031 0.925,-0.394 l 0,0 c 0.036,-0.2 -0.031,-0.405 -0.181,-0.542 l 0,0 c -0.012,-0.013 -0.026,-0.024 -0.04,-0.035 l 0,0 c -0.018,-0.013 -0.036,-0.026 -0.055,-0.039 l 0,0 c -0.049,-0.034 -0.096,-0.069 -0.145,-0.102 l 0,0 c -0.082,-0.057 -0.163,-0.114 -0.244,-0.172 l 0,0 c -0.23,0.327 -0.46,0.654 -0.69,0.981" />
              </g>
            </g>
          </g>
        </g>
      </g>
      <g
         id="g5014">
        <g
           id="g5016">
          <g
             id="g5022">
            <g
               id="g5024">
              <g
                 clip-path="url(#clipPath5028)"
                 id="g5026">
                <path
                   inkscape:connector-curvature="0"
                   id="path5042"
                   style="fill:url(#linearGradient5032);stroke:none"
                   d="m 214.694,367.073 2.259,-3.213 1.56,1.096 -0.483,0.686 -0.821,-0.578 -1.777,2.528 -0.738,-0.519 z" />
              </g>
            </g>
          </g>
        </g>
      </g>
      <g
         id="g5044">
        <g
           id="g5046">
          <g
             id="g5052">
            <g
               id="g5054">
              <g
                 clip-path="url(#clipPath5058)"
                 id="g5056">
                <path
                   inkscape:connector-curvature="0"
                   id="path5072"
                   style="fill:url(#linearGradient5062);stroke:none"
                   d="m 212.059,365.22 c -0.667,-0.468 -0.813,-1.379 -0.343,-2.039 l 0,0 c 0.471,-0.67 0.941,-1.341 1.413,-2.01 l 0,0 c 0.246,0.173 0.491,0.345 0.738,0.518 l 0,0 c -0.163,0.232 -0.325,0.462 -0.487,0.693 l 0,0 0.902,0.635 c 0.163,-0.232 0.325,-0.462 0.487,-0.693 l 0,0 c 0.246,0.173 0.492,0.345 0.738,0.519 l 0,0 c -0.471,0.67 -0.943,1.339 -1.413,2.01 l 0,0 c -0.285,0.41 -0.74,0.633 -1.203,0.633 l 0,0 c -0.287,0 -0.577,-0.086 -0.832,-0.266 m 0.393,-1.518 c -0.088,0.123 -0.127,0.264 -0.102,0.416 l 0,0 c 0.023,0.148 0.106,0.279 0.227,0.365 l 0,0 c 0.122,0.085 0.274,0.118 0.42,0.091 l 0,0 c 0.151,-0.029 0.271,-0.114 0.358,-0.238 l 0,0 c 0.136,-0.194 0.273,-0.388 0.409,-0.581 l 0,0 c -0.301,-0.212 -0.602,-0.423 -0.903,-0.635 l 0,0 -0.409,0.582 z" />
              </g>
            </g>
          </g>
        </g>
      </g>
      <g
         id="g5074">
        <g
           id="g5076">
          <g
             id="g5082">
            <g
               id="g5084">
              <g
                 clip-path="url(#clipPath5088)"
                 id="g5086">
                <path
                   inkscape:connector-curvature="0"
                   id="path5102"
                   style="fill:url(#linearGradient5092);stroke:none"
                   d="m 221.943,372.17 c -0.666,-0.469 -0.813,-1.379 -0.343,-2.041 l 0,0 c 0.47,-0.669 0.942,-1.339 1.413,-2.009 l 0,0 c 0.245,0.173 0.492,0.345 0.738,0.519 l 0,0 c -0.162,0.231 -0.325,0.462 -0.487,0.692 l 0,0 c 0.3,0.212 0.601,0.423 0.903,0.635 l 0,0 c 0.162,-0.232 0.324,-0.462 0.487,-0.692 l 0,0 c 0.245,0.172 0.491,0.345 0.737,0.518 l 0,0 c -0.471,0.67 -0.942,1.34 -1.413,2.01 l 0,0 c -0.286,0.41 -0.74,0.632 -1.203,0.632 l 0,0 c -0.287,0 -0.577,-0.085 -0.832,-0.264 m 0.393,-1.519 c -0.087,0.124 -0.126,0.265 -0.102,0.417 l 0,0 c 0.024,0.147 0.106,0.278 0.227,0.364 l 0,0 c 0.122,0.085 0.274,0.119 0.42,0.091 l 0,0 c 0.152,-0.029 0.271,-0.114 0.358,-0.238 l 0,0 c 0.136,-0.193 0.272,-0.388 0.408,-0.581 l 0,0 c -0.3,-0.212 -0.601,-0.423 -0.902,-0.635 l 0,0 c -0.136,0.194 -0.272,0.388 -0.409,0.582" />
              </g>
            </g>
          </g>
        </g>
      </g>
    </g>
  </g>
</svg>
