<?xml version="1.0" encoding="UTF-8" standalone="no"?>
<!-- Created with Inkscape (http://www.inkscape.org/) -->
<!DOCTYPE svg PUBLIC "-//W3C//DTD SVG 1.1//EN" "http://www.w3.org/Graphics/SVG/1.1/DTD/svg11.dtd">
<svg
   xmlns:svg="http://www.w3.org/2000/svg"
   xmlns="http://www.w3.org/2000/svg"
   xmlns:xlink="http://www.w3.org/1999/xlink"
   version="1.1"
   width="400"
   height="265"
   id="svg15622">
  <defs
     id="defs15624">
    <linearGradient
       id="linearGradient17113">
      <stop
         id="stop17115"
         style="stop-color:#ffda00;stop-opacity:1"
         offset="0" />
      <stop
         id="stop17121"
         style="stop-color:white;stop-opacity:1"
         offset="0.5" />
      <stop
         id="stop17117"
         style="stop-color:#ffda00;stop-opacity:1"
         offset="1" />
    </linearGradient>
    <linearGradient
       id="linearGradient17103">
      <stop
         id="stop17105"
         style="stop-color:#231f20;stop-opacity:1"
         offset="0" />
      <stop
         id="stop17111"
         style="stop-color:white;stop-opacity:1"
         offset="0.5" />
      <stop
         id="stop17107"
         style="stop-color:#231f20;stop-opacity:1"
         offset="1" />
    </linearGradient>
    <linearGradient
       x1="242.74599"
       y1="435.39789"
       x2="252.772"
       y2="401.13889"
       id="linearGradient17109"
       xlink:href="#linearGradient17103"
       gradientUnits="userSpaceOnUse" />
    <linearGradient
       x1="295.47345"
       y1="300.96875"
       x2="328.33035"
       y2="245.96875"
       id="linearGradient17119"
       xlink:href="#linearGradient17113"
       gradientUnits="userSpaceOnUse" />
    <linearGradient
       x1="242.74599"
       y1="435.39789"
       x2="252.772"
       y2="401.13889"
       id="linearGradient17151"
       xlink:href="#linearGradient17103"
       gradientUnits="userSpaceOnUse" />
    <linearGradient
       x1="295.47345"
       y1="300.96875"
       x2="328.33035"
       y2="245.96875"
       id="linearGradient17153"
       xlink:href="#linearGradient17113"
       gradientUnits="userSpaceOnUse" />
  </defs>
  <g
     transform="translate(0,-787.36218)"
     id="layer1">
    <g
       transform="matrix(0.99995813,0,0,0.99995813,-155.97425,620.73408)"
       id="g17123">
      <path
         d="m 469.28125,177.3125 c -12.53133,0 -22.6423,4.04151 -30.5625,11.0625 -0.13668,-1.05027 -0.35164,-2.16693 -0.625,-3.5625 -2.58971,1.82 -4.91609,3.82528 -6.9375,6.0625 L 429,190.125 c -20.53785,-5.40961 -42.37251,-8.39102 -63.59375,-9.03125 l -9.625,-0.1875 -9.65625,0.1875 -9.53125,0.40625 C 99.714336,203.73555 115.6767,408.91669 346.125,420.84375 l 9.65625,0.125 9.625,-0.125 9.53125,-0.4375 c 51.80141,-3.23714 112.01601,-21.45771 147.4375,-61.46875 l 4.25,-5.15625 3.9375,-5.3125 c 25.40074,-37.40694 18.30224,-79.01343 -12.875,-110.5 l -4.96875,-4.90625 -5.40625,-4.6875 c -3.28749,-2.51777 -7.12819,-5.19014 -10.34375,-7.21875 0.0647,-2.02141 0.346,-4.67861 0.28125,-5.9375 6.78361,1.33083 13.99724,7.07407 18.6875,13.65625 5.17222,-23.56637 -2.95889,-38.67127 -22.1875,-40.84375 l 5.8125,-5.0625 c -11.74002,-3.35223 -21.54182,-2.79817 -29.65625,-0.90625 l 2.65625,-4.65625 c -1.11502,-0.0647 -2.2094,-0.0937 -3.28125,-0.0937 z"
         id="path16282"
         style="fill:#231f20;fill-opacity:1;fill-rule:nonzero;stroke:none" />
      <path
         d="m 458.57143,435.39789 a 163.21428,46.25 0 1 1 -326.42856,0 163.21428,46.25 0 1 1 326.42856,0 z"
         transform="matrix(0.97769236,0,0,1.9868913,67.220729,-563.94762)"
         id="path16292"
         style="fill:url(#linearGradient17151);fill-opacity:1;fill-rule:evenodd;stroke:none" />
      <path
         d="m 355.78125,185.78125 c -102.10655,0 -185.40625,51.7706 -185.40625,115.125 0,63.49827 83.2997,115.25 185.40625,115.25 102.10655,0 185.40625,-51.75173 185.40625,-115.25 0,-34.69493 -22.40458,-60.78818 -50.71875,-79.03125 -2.0358,-1.1294 -4.1268,-2.02097 -6.78125,-2.71875 -7.05696,-1.89193 -9.99411,-0.70458 -9.5625,2.09375 1.17077,6.52487 17.75534,12.55365 17.59375,26.3125 17.34613,15.27335 27.46875,33.62497 27.46875,53.375 0,53.12254 -73.17471,96.1875 -163.4375,96.1875 -90.26279,0 -163.4375,-43.06496 -163.4375,-96.1875 0,-53.12254 73.17471,-96.1875 163.4375,-96.1875 23.52493,0 45.88344,2.89016 66.09375,8.15625 0.44394,-6.29795 2.49438,-12.49933 6.15625,-18.03125 l -1.71875,-0.40625 c -21.75358,-5.58946 -45.59561,-8.6875 -70.5,-8.6875 z"
         id="path6330"
         style="fill:url(#linearGradient17153);fill-opacity:1;fill-rule:nonzero;stroke:none" />
      <path
         d="m 435.57397,232.01153 0,-0.0719 0,0.0719 z"
         id="path6344"
         style="fill:#231f20;fill-opacity:1;fill-rule:nonzero;stroke:none" />
      <path
         d="M 467.81156,271.80254 z"
         id="path6358"
         style="fill:#231f20;fill-opacity:1;fill-rule:nonzero;stroke:none" />
      <path
         d="m 468.50864,273.90016 0.0719,-0.0719 -0.0719,0.0719 z"
         id="path6362"
         style="fill:#231f20;fill-opacity:1;fill-rule:nonzero;stroke:none" />
      <path
         d="m 429.76663,362.79187 0,-0.0719 0,0.0719 z"
         id="path6394"
         style="fill:#231f20;fill-opacity:1;fill-rule:nonzero;stroke:none" />
      <path
         d="m 426.41284,320.89691 0.13668,0.14387 0.76972,0.20862 0.48917,0.13668 -0.20862,-0.13668 -1.12221,-0.41723 -0.0647,0.0647 z"
         id="path6410"
         style="fill:#231f20;fill-opacity:1;fill-rule:nonzero;stroke:none" />
      <path
         d="m 311.28735,348.24426 0.0791,0 -0.0791,0 z"
         id="path6414"
         style="fill:#231f20;fill-opacity:1;fill-rule:nonzero;stroke:none" />
      <path
         d="m 311.36499,348.23776 0.20862,-0.13668 -0.20862,0.13668 z"
         id="path6418"
         style="fill:#231f20;fill-opacity:1;fill-rule:nonzero;stroke:none" />
      <path
         d="m 311.57228,348.10177 0.0719,0 -0.0719,0 z"
         id="path6434"
         style="fill:#231f20;fill-opacity:1;fill-rule:nonzero;stroke:none" />
      <path
         d="m 305.27928,351.31963 1.81999,-0.9064 -1.81999,0.9064 z"
         id="path6438"
         style="fill:#231f20;fill-opacity:1;fill-rule:nonzero;stroke:none" />
      <path
         d="m 310.03779,346.42496 c -2.79833,1.4675 -5.17942,2.65445 -7.13609,3.71192 3.14362,-1.61138 6.29443,-3.2875 7.34471,-3.78386 l -0.20862,0.0719"
         id="path6442"
         style="fill:#231f20;fill-opacity:1;fill-rule:nonzero;stroke:none" />
      <path
         d="m 300.94134,351.11239 c -9.58193,4.95642 -5.52472,2.87026 0,0"
         id="path6446"
         style="fill:#231f20;fill-opacity:1;fill-rule:nonzero;stroke:none" />
      <path
         d="m 299.26603,354.45088 c 0.37407,-0.18703 0.80569,-0.38126 1.25889,-0.60427 -0.46759,0.17985 -0.87763,0.39565 -1.25889,0.60427 m -0.5611,0.30213 c 0.18703,-0.0935 0.36687,-0.20142 0.5611,-0.30213 -0.20142,0.10071 -0.39565,0.20142 -0.5611,0.30213"
         id="path6450"
         style="fill:#231f20;fill-opacity:1;fill-rule:nonzero;stroke:none" />
      <path
         d="m 287.585,363.91195 0,-0.0719 0,0.0719 z"
         id="path6454"
         style="fill:#231f20;fill-opacity:1;fill-rule:nonzero;stroke:none" />
      <path
         d="M 261.49721,346.9848 z"
         id="path6468"
         style="fill:#231f20;fill-opacity:1;fill-rule:nonzero;stroke:none" />
      <path
         d="m 437.52926,194.73264 c -0.48197,-1.26608 -1.05027,-2.72639 -1.25889,-3.91334 -6.01388,5.37365 -11.1933,13.13559 -11.26524,22.65278 -0.20142,18.12078 16.23605,22.24274 30.56578,27.55884 12.23639,4.54638 9.79055,14.4736 -3.35943,16.99138 -11.46666,-16.99138 -31.26356,-21.39389 -52.16829,-18.81138 -11.26524,1.25889 -22.03412,4.40971 -33.01162,10.13585 -5.94194,3.01413 -11.61053,7.3519 -16.35834,12.03496 -1.19414,1.19414 -2.31635,2.38109 -3.35943,3.63279 l -0.49636,-5.58946 c -1.60418,1.17975 -6.56779,4.81974 -7.54613,6.2225 l -0.21581,-3.07169 c -2.65445,1.95667 -4.75499,2.51058 -7.90581,2.79113 l -0.0647,-0.90639 c -0.14387,-1.88474 -0.41723,-3.56805 -1.18695,-5.24417 l -0.42443,-0.69778 c -2.43864,-2.72639 -6.15056,-3.99247 -9.43086,-5.45998 -1.4747,-0.69778 -3.08607,-1.4675 -4.20109,-2.73358 -0.63304,-0.82727 -1.19414,-1.74086 -1.81999,-2.65445 l -1.67612,-1.74806 c -1.12221,-0.91359 -2.38109,-1.53224 -3.71192,-2.09335 -1.25888,-0.5683 -2.51058,-0.97833 -3.77666,-1.33082 -2.02141,-0.48917 -4.05721,-0.98553 -6.08582,-1.18695 -2.30916,-0.20862 -4.67587,-0.13668 -7.06415,-0.35249 l -0.27336,0 c -0.63304,-0.48917 -1.33802,-0.83446 -2.0358,-1.26608 -0.76972,-0.26617 -1.52506,-0.54672 -2.29478,-0.76972 -0.98552,-0.20142 -1.89192,-0.3381 -2.87745,-0.48197 -1.74806,-0.20862 -3.35224,-0.20862 -5.10029,0.14387 l -1.19415,0.27336 -7.06415,3.63998 -0.84166,0.62585 c -1.53944,1.40276 -2.86307,2.79832 -3.70473,4.69025 -1.60418,0.76972 -3.21555,1.60418 -4.75499,2.51058 -5.66859,3.35943 -11.18611,7.42384 -14.74697,12.94136 -3.01413,4.89887 -3.92773,8.18637 -4.20108,13.85495 l 5.45278,-2.5969 c -2.79114,6.92748 -3.63279,13.71827 -3.63279,22.31468 1.17975,-2.72639 2.44584,-5.1003 4.67586,-6.43831 -1.4675,5.17223 -0.97833,7.62526 1.12221,13.43772 l 3.35943,-4.54638 c 0.28775,3.07168 1.04308,5.94195 2.30197,8.74027 0.77691,1.38837 1.54663,2.72639 2.52497,3.97809 0.76972,0.97833 1.53944,1.89912 2.38109,2.79832 -1.33802,0.0791 -2.58971,0.14388 -3.85579,0.28775 l -2.65445,0.55391 c -1.32363,0.28774 -2.58971,0.69778 -3.84141,1.19414 l -2.45303,1.11502 c -5.10749,2.92062 -7.81229,7.81229 -6.28724,13.71108 l 0.84165,2.44584 c 0.48198,1.33082 1.10782,2.58971 1.88474,3.84859 0.55391,0.9064 1.17975,1.74806 1.8128,2.58971 0.70497,0.76972 1.39556,1.46751 2.16528,2.23723 0.76972,0.61865 1.53944,1.25888 2.3811,1.81999 l 0.83446,0.48197 c 1.89193,1.05027 3.92773,2.17248 5.94914,2.3811 -0.69778,-0.76972 -0.84166,-1.26608 -0.97114,-2.17248 1.74086,0.98553 3.76947,0.9064 5.58946,0.84165 -0.84166,-0.69778 -1.2517,-1.05027 -1.32363,-2.16528 1.25169,0.69778 3.42417,0.69778 4.53919,0.0719 -0.48917,-0.64023 -0.97115,-1.25888 -1.11502,-2.10054 2.58971,0.48917 3.56805,0.35249 5.51752,-0.0719 -2.58251,-2.44583 -5.87001,-7.55332 -3.83421,-9.43805 l 1.38838,-0.20862 c 2.44583,0.20862 4.83412,1.18695 7.13609,1.95667 3.21556,1.12221 5.79807,3.42418 9.02802,4.68306 -2.94939,0.97834 -5.81246,1.95667 -8.53885,3.43137 l -1.33083,0.76972 c -1.53224,0.97833 -2.72639,2.02141 -3.8486,3.49611 -0.48916,0.62585 -0.84165,1.17976 -1.17975,1.88473 -0.35968,0.84166 -0.5683,1.61138 -0.76972,2.51778 l -0.21581,1.25169 c -0.14387,1.81999 0,3.43137 0.48917,5.17942 0.34529,0.97834 0.76972,1.88474 1.33801,2.79833 0.41004,0.62585 0.9064,1.26608 1.38838,1.96386 1.1222,1.18695 2.31635,2.23003 3.63998,3.20837 2.0358,1.40276 4.19389,2.44584 6.36637,3.57524 l -0.14387,-3.49611 c 2.10054,1.46031 4.55357,2.0286 6.92028,2.72639 l -0.54672,-3.35943 c 2.58252,1.39556 5.72614,1.95667 8.59641,2.79832 l -2.51778,-4.20108 5.73333,0.97833 c -1.1222,-2.02141 -4.54638,-6.56779 -2.9422,-9.1575 1.82,0.34529 3.71192,0.97833 5.45998,1.46031 0.13668,-1.74806 0.0647,-4.11477 0.76972,-5.72614 1.47469,1.68331 3.49611,1.4675 5.58946,1.68331 l 0.5611,-3.08607 c 0.49636,-1.32363 1.74806,-1.94948 3.01414,-2.58971 2.86307,-1.32363 5.87001,-2.09335 8.94889,-2.86307 4.47444,-1.04308 9.08557,-2.02142 13.3514,-3.84141 2.45303,-1.1294 4.9708,-2.0358 7.13609,-3.63998 l 1.33082,-1.18695 0.3453,-1.12221 -0.0647,-0.97833 -0.34529,-1.53944 c 2.02141,-0.69779 4.05002,-1.60419 6.01388,-2.58252 3.35943,-1.74806 6.63973,-3.71192 9.58193,-6.08582 3.90615,-3.35943 7.68281,-6.85554 11.46667,-10.42359 2.79113,-2.38109 5.38084,-5.03555 8.0353,-7.56051 0.14387,1.97105 0.50355,3.71911 1.05027,5.53191 0.70497,1.81999 1.74805,3.63998 2.79832,5.3161 l 1.61138,2.09335 1.61137,1.68331 c 1.88474,1.68331 6.92029,3.49611 8.80502,5.24416 -4.7478,2.3811 -12.58168,0.48917 -19.01999,0.48917 -1.1222,0 -2.23722,0.28055 -3.35223,0.55391 -1.19415,0.35968 -2.24442,0.70498 -3.35224,1.19415 -0.97834,0.55391 -1.97106,1.1222 -2.87746,1.81999 l -1.81999,1.68331 c -0.55391,0.69778 -1.05027,1.32363 -1.53224,2.02861 -0.42443,0.69778 -0.76253,1.39556 -1.05028,2.16528 -0.28055,0.84166 -0.48916,1.59699 -0.62584,2.43865 -0.13668,0.92078 -0.13668,1.68331 -0.13668,2.58971 0.0647,0.9064 0.13668,1.74805 0.3381,2.65445 0.28055,0.97834 0.5683,1.81999 0.97834,2.74078 0.35248,0.69059 0.76971,1.32363 1.19414,2.02141 0.9064,1.18695 1.89193,2.16529 3.07168,3.14362 0.77692,0.5683 1.54664,1.12221 2.46023,1.61138 1.38837,0.70498 2.92781,1.26608 4.40251,1.88473 l 0.63304,-1.88473 c 1.95667,1.26608 3.97808,2.30916 6.00669,3.35943 l 0.48917,-2.86307 3.91334,2.72639 0.63304,-3.43137 1.40276,0.56111 4.61112,0.76972 c -0.41723,-1.61138 -0.91359,-3.21556 -1.32363,-4.82694 -0.63304,-2.38109 -3.99247,-5.94914 -2.45303,-8.2511 4.13634,-2.30916 11.74722,-3.35943 16.37273,-3.78386 6.70447,-0.69778 14.12831,-2.02141 20.91191,-3.48892 2.43865,-1.18695 2.65446,-1.95667 3.63279,-4.34495 0.55391,-1.94948 2.58971,-3.76947 2.02142,-5.58227 -0.3381,-0.70498 -2.44584,-0.70498 -2.92782,-1.33802 -0.84165,-1.04308 -0.28774,-1.04308 0.41004,-2.16528 1.33802,0.48197 2.58971,0.97833 3.85579,1.68331 2.36671,2.09335 5.6614,9.35893 4.25864,12.0997 -0.69059,4.11477 -15.80443,5.72614 -20.27888,7.33752 -0.70497,0.27336 -1.39556,0.5611 -2.09335,0.91359 -5.3161,2.92781 -6.29443,7.96336 -5.11467,13.70389 1.68331,5.58946 6.79079,10.21497 11.32998,13.28665 0.0719,-1.32363 0.28055,-2.935 0.70498,-4.05721 1.04308,1.19414 3.2803,2.87026 4.53919,3.35224 0.14387,-1.60419 0.14387,-2.58252 0.48916,-4.11477 1.68332,1.32363 3.2875,2.30916 5.87721,3.14362 0.28774,-1.47469 0.69778,-2.45303 1.19414,-3.63278 2.23003,0.55391 4.54638,1.60418 7.13609,1.31643 l -2.10773,-4.47444 c -0.20862,-1.17976 -0.3453,-2.30197 -0.27336,-3.56086 0.0647,-1.11501 0.27336,-2.23722 0.5611,-3.29468 1.95667,-5.02836 12.02058,-6.49586 16.43747,-8.04249 6.35918,-2.65446 6.70448,-5.65421 3.97809,-11.53141 -2.02142,-3.99247 -6.71167,-10.21497 -3.13643,-14.8261 3.83421,-8.17917 12.30832,-11.89828 17.96252,-17.48055 -3.35943,-1.89192 -5.80527,-2.94219 -9.71861,-3.43136 2.02861,-2.72639 6.43112,-5.74053 7.89862,-7.97056 -3.35224,-2.0286 -8.10004,-4.0644 -11.60334,-4.33776 1.04308,-2.51778 3.00694,-3.35943 4.68306,-6.15057 -1.95667,-0.84165 -4.4097,-0.97833 -6.78361,-0.35968 -0.20861,-1.46031 -0.20861,-2.23003 -0.28055,-3.70472 4.26583,-0.41723 8.46692,-1.2517 12.66801,-2.51778 10.20058,-3.63279 18.73224,-11.26524 19.99112,-21.32195 1.82719,-14.96997 -10.84081,-18.68189 -17.06331,-28.53718 -1.53944,-2.935 -0.9064,-5.45278 0.97833,-6.86273 1.67612,-1.25169 4.4097,-1.53944 6.65412,-1.38837 6.77641,0.54671 10.89837,2.65445 14.89803,5.52471 0.3381,-3.92772 0.48198,-6.43831 -0.14387,-9.24383 8.10723,1.05747 15.09945,4.90607 20.48749,10.15023 0.76253,-17.97691 -5.6614,-30.83914 -26.99774,-30.83914 l 5.52472,-5.53191 c -9.93442,-2.3739 -19.44441,-0.62585 -28.74579,1.40276 l 3.21556,-5.38804 c -0.10791,0 -0.21581,0 -0.32372,0 -9.55315,0 -22.27151,5.82685 -29.1846,13.9197"
         id="path6472"
         style="fill:white;fill-opacity:1;fill-rule:nonzero;stroke:none" />
      <path
         d="m 436.47398,199.55601 c -0.48197,-1.12221 -1.38837,-3.00694 -1.66892,-4.26583 -2.30916,3.00694 -6.01389,7.6972 -6.99222,14.76135 -2.30916,15.80443 8.74027,21.955 20.07026,25.59498 4.54638,1.4675 12.99891,3.8486 17.12806,8.0353 2.94219,3.08607 3.158,6.99222 -0.0719,10.91994 -3.13643,3.83421 -11.25805,6.08582 -14.32973,6.49586 -6.64693,-9.78335 -12.93417,-15.73969 -25.60217,-18.03446 -19.44442,-4.12915 -42.37055,-0.0719 -59.85829,10.27252 -6.51025,3.99247 -12.09971,8.2583 -17.14245,14.68942 -2.58971,1.12221 -3.21556,-2.09335 -3.2875,-3.98528 -3.90614,2.9422 -5.24416,5.66859 -7.76194,12.24358 -0.97833,-2.87746 -0.91359,-3.56805 -0.76971,-5.60385 -3.07169,2.87027 -3.97809,7.56052 -6.91309,10.35885 -3.22276,3.49611 -10.01355,8.86976 -14.97717,9.22944 -7.47419,0.69778 -13.07804,-1.53944 -14.20024,-7.62526 4.0644,2.58971 9.3805,3.8414 13.14997,3.49611 4.4097,0.0719 8.46692,-1.95667 10.48833,-6.78361 1.05027,-2.935 3.02133,-3.43136 4.33777,-4.12195 1.05027,-0.69779 6.29443,-3.77666 6.58218,-8.46692 -2.38829,0.91359 -4.76219,1.19415 -6.7908,1.4747 0.20862,-2.10055 0.84885,-7.27997 -0.62584,-8.53885 -3.43137,-3.07169 -8.25111,-3.78386 -11.96303,-6.5678 -2.02861,-1.33082 -2.87026,-4.27302 -4.89168,-5.59665 -2.86307,-1.89193 -5.8772,-2.72639 -9.30857,-3.43137 -2.99975,-0.76972 -7.69,-0.35249 -10.76169,-0.83446 -0.76972,-0.97834 -3.01413,-1.89193 -4.33776,-2.10774 -2.51778,-0.34529 -2.86307,-0.55391 -5.24417,-0.41004 -2.86307,0.33811 -5.81246,1.74806 -7.89861,3.2875 -2.10774,1.67612 -3.99248,3.42417 -4.54639,5.52472 -10.00635,3.14362 -22.10606,12.72555 -22.31467,23.28581 2.09335,-1.33082 4.12915,-1.74805 5.58946,-1.39556 -1.31644,3.91334 -4.74781,12.30112 -4.68306,17.83303 1.68331,-2.51777 3.36662,-2.9422 4.83412,-4.19389 -0.35968,3.56085 -1.26608,8.94889 -0.43161,13.28666 1.40995,-2.02861 2.38828,-2.58972 4.4097,-3.56805 0.28055,6.92028 1.67612,12.43781 5.81246,17.06332 0.76972,-1.67612 1.53944,-2.73359 3.28749,-4.1939 1.11502,4.61113 5.16504,7.97056 8.11443,10.63221 -1.54663,0.3381 -0.98553,0.20861 -2.31635,0.76252 -8.38779,-4.47444 -31.19163,-1.05027 -26.09134,13.29385 1.53944,4.81974 5.25136,9.15751 9.03522,10.9775 -0.28775,-1.1294 -0.70498,-1.67612 -0.64024,-2.80552 1.39557,0.98553 3.00694,2.17248 5.11468,2.58971 -0.77691,-1.66893 -1.05027,-2.30197 -0.97833,-3.91334 1.25169,1.32363 2.86306,2.58971 4.81254,2.73358 -0.13668,-1.26608 -0.62585,-0.91359 -0.62585,-2.87026 1.96387,1.60418 4.82694,1.60418 4.69026,1.05027 -2.45303,-3.56805 -4.89887,-8.95608 0,-10.28691 2.51777,-0.48916 7.1289,1.33083 9.44525,2.0358 3.8414,1.25889 6.92028,4.47445 11.04224,5.24417 1.05746,0.34529 -1.74806,-3.71192 -0.41723,-3.92054 1.11501,0 3.00694,0.97834 4.27302,2.30916 0.41004,-1.26608 1.04308,-2.10054 2.02141,-2.16528 0.76972,-0.20862 1.8128,1.39556 3.77667,2.09335 -1.82,0.84165 -5.1003,3.07887 -6.84835,3.92053 -5.3233,2.3739 -15.0491,4.05721 -18.04165,9.64667 -1.33802,2.3811 -1.40996,5.66859 -0.50356,8.18637 1.20134,3.07888 4.48164,6.08582 7.56052,7.61806 -0.0647,-1.74805 -0.13668,-3.21555 0.9064,-3.97808 1.11501,1.25889 3.43136,3.27311 5.38084,3.8414 -0.26616,-1.67611 -0.83446,-3.49611 -0.26616,-4.54638 1.31643,0.97834 4.26583,2.99975 6.2153,3.50331 -1.04307,-1.68332 -1.04307,-2.87027 -1.11501,-4.13635 0.91359,1.11502 2.30196,1.11502 5.02835,1.68331 -0.82726,-1.54663 -3.2803,-6.71886 -0.28055,-9.92722 2.10774,1.38837 3.01414,1.8128 4.90607,1.67612 0.13667,-2.30916 0.27335,-4.33777 2.51777,-6.01389 0.97834,1.67612 2.09335,2.86307 4.11476,2.86307 0.22301,-1.81279 0.84166,-2.65445 1.89912,-3.63279 6.00669,-4.4097 17.7611,-4.76219 25.09862,-8.11442 1.19414,-0.56111 7.06415,-2.80552 7.27996,-4.05722 0.27336,0.76972 0.27336,-1.81999 -1.53944,-3.49611 2.93501,-0.9064 6.64693,-2.3739 9.08557,-3.63279 3.01414,-1.61137 6.64693,-3.78385 9.09996,-6.01388 4.05002,-3.43137 7.06416,-6.29444 10.90556,-9.94161 3.14362,-2.65446 8.89134,-8.52447 12.23638,-11.18611 -0.41003,3.99247 0,7.97774 1.05747,10.70413 4.47445,9.37332 10.9703,8.45973 17.2,14.8261 2.26599,2.99975 -14.57432,2.87746 -21.45864,2.76955 -1.61137,-0.0288 -2.68322,-0.0575 -2.81271,-0.0432 -8.74027,1.05027 -14.53835,8.17917 -10.84082,16.36553 1.54664,3.00695 4.20109,5.3161 7.34471,6.50306 0.69778,-1.95668 0.28775,-2.02861 0.9064,-2.7264 1.1294,1.25889 3.57524,2.66165 5.46717,3.63279 0.48197,-1.88473 -0.64024,-2.30196 0.13668,-3.56085 0.76972,0.83446 2.92781,1.87754 4.4025,3.00694 0.41724,-1.61137 -0.27335,-2.58971 0.41724,-3.56804 0.48916,0.76252 3.63998,2.23722 5.03555,2.30916 -0.27336,-0.9136 -7.1361,-9.1647 -3.2875,-11.32999 6.7836,-3.07888 15.45914,-4.4097 23.42969,-5.45278 6.01389,-0.84166 10.62501,-0.0719 16.22886,-2.9422 0.97114,-0.5611 3.70472,-4.26583 3.70472,-5.38804 -0.34529,-1.53224 -3.77666,-2.23002 -3.91334,-3.49611 -0.21581,-0.98552 0.13668,-1.53224 0.84166,-2.3739 -3.99247,-2.58971 -3.22275,-3.78385 -3.2875,-4.05721 2.92781,1.25169 7.89862,2.45303 11.04944,4.26583 3.20836,2.66165 7.33751,12.58168 5.10029,16.01304 -2.10055,2.79114 -7.40945,3.78386 -12.38026,4.53919 -8.10723,2.66884 -16.84751,2.0358 -15.09945,14.27938 0.62584,3.56805 3.8414,7.1289 6.85554,9.22225 0.13668,-1.38837 0.61865,-2.58971 1.25169,-3.70473 1.19415,1.33802 2.51778,2.3811 3.92054,3.50331 0.34529,-2.02861 1.05027,-3.00695 1.53224,-3.8486 0.84166,1.12221 3.15082,2.79832 5.03555,3.49611 0.49636,-1.33083 0.97834,-2.79833 1.53944,-3.56085 0.9064,1.04307 2.38109,1.52505 4.68306,1.88473 -0.83446,-3.21556 -0.9064,-4.61832 -0.0647,-8.11443 0.5611,-2.30916 2.79113,-3.98528 4.89887,-5.38804 2.02141,-1.4675 4.7478,-2.02141 7.26557,-2.935 2.17968,-0.76972 4.54639,-0.97834 6.58219,-1.95667 1.81999,-1.05027 3.56804,-1.67612 3.28749,-3.70473 -1.67612,-4.75499 -5.39523,-8.39498 -6.58218,-13.0061 -0.62585,-2.80552 -0.97114,-7.21522 0.77691,-9.30138 4.40251,-7.97775 10.06391,-10.08548 15.23613,-14.12831 -2.15809,-2.87746 -4.4025,-1.74806 -9.02082,-2.87746 2.58971,-3.56804 6.43831,-7.47419 8.95608,-9.08557 -2.87026,-1.88473 -9.99197,-3.49611 -12.94136,-2.935 -0.41723,-1.89912 5.03555,-4.4097 6.64693,-6.57499 -1.94948,-0.64023 -3.84141,0.41723 -5.72614,0.62585 -0.22301,-1.19415 -0.28775,-7.27997 -0.43162,-8.45973 12.51693,-1.54663 28.04801,-4.82693 32.11241,-19.16386 5.1003,-16.50221 -10.70413,-21.19246 -16.57415,-31.3355 -2.94939,-6.56779 2.51778,-10.48833 8.45973,-10.76169 7.06415,-0.43161 11.32998,1.74806 13.98444,3.70473 0.34529,-3.22275 0,-6.08582 -0.98553,-8.32304 4.76219,0.28055 13.5672,1.39556 20.55942,6.29443 -0.9064,-18.46607 -14.82609,-21.53776 -28.73859,-20.98385 1.40276,-1.8128 3.56804,-3.8486 5.45278,-5.38084 -9.58193,-0.70498 -18.39414,-0.35249 -27.40778,2.72639 0.63304,-1.96387 1.38838,-3.92054 3.13643,-5.66859 -9.29418,1.33082 -20.1422,7.34471 -26.15608,15.31526"
         id="path6476"
         style="fill:#231f20;fill-opacity:1;fill-rule:nonzero;stroke:none" />
      <path
         d="m 312.55631,272.92252 c 0.97834,0.35249 3.97808,1.05027 5.93475,0.84166 0.14388,-0.63304 0.0791,-1.05747 0.14388,-1.96387 -0.18704,-0.0216 -0.38127,-0.0288 -0.58988,-0.0288 -1.6977,0 -3.92773,0.71217 -5.48875,1.15098"
         id="path6480"
         style="fill:white;fill-opacity:1;fill-rule:nonzero;stroke:none" />
      <path
         d="m 317.80053,277.11785 1.74805,0 c 0,0.13668 0.76253,-1.81999 0.48198,-2.58971 -0.63304,0.97833 -1.32363,2.10054 -2.23003,2.58971"
         id="path6484"
         style="fill:white;fill-opacity:1;fill-rule:nonzero;stroke:none" />
      <path
         d="m 316.53796,276.97542 c 0.69778,-0.41004 1.39557,-1.38118 1.61138,-1.88473 -0.3453,0.0791 -5.39524,0.65462 -7.55333,-0.0719 1.18695,1.19414 3.70473,2.0358 5.94195,1.95667 m 1.61138,-1.88473 c 0.0216,0 0.0216,-0.007 0,-0.007 0,0.007 0,0.007 0,0.007"
         id="path6488"
         style="fill:white;fill-opacity:1;fill-rule:nonzero;stroke:none" />
      <path
         d="m 323.74375,271.10333 c -2.17248,0.97834 -1.96386,3.63998 1.74805,2.72639 2.65446,-0.55391 4.61832,-2.16529 6.43831,-4.47444 -2.10054,0.5611 -5.38803,2.10054 -8.18636,1.74805"
         id="path6492"
         style="fill:white;fill-opacity:1;fill-rule:nonzero;stroke:none" />
      <path
         d="m 320.03413,273.20088 c 1.95667,-1.81999 2.51777,-4.33777 2.65445,-5.24416 l -2.65445,-0.14388 c 0.69778,1.89193 0.0719,3.71192 0,5.38804"
         id="path6496"
         style="fill:white;fill-opacity:1;fill-rule:nonzero;stroke:none" />
      <path
         d="m 312.34257,270.47518 c 0.0288,0.0288 0.64023,-0.16545 1.53225,-0.35968 1.56821,-0.35249 3.97089,-0.69779 5.53191,0.14387 l -0.35249,-2.43864 c -0.15107,-0.007 -0.30933,-0.007 -0.47478,-0.007 -2.25161,0 -5.12907,0.50356 -6.23689,2.66165"
         id="path6500"
         style="fill:white;fill-opacity:1;fill-rule:nonzero;stroke:none" />
      <path
         d="m 442.9806,216.3439 c -2.86307,-4.55358 -2.44584,-9.7258 -0.0647,-14.40886 -10.49553,4.81974 -13.71108,20.07026 -0.56111,27.13441 4.26583,2.31635 13.63915,4.40251 20.83998,8.33024 4.96361,2.72639 9.02083,5.86282 9.51,12.23638 0.84165,11.40192 -17.83304,16.00585 -25.03388,16.35834 -4.33776,-14.26499 -26.43663,-19.37247 -39.09744,-19.15666 -10.20777,0.20861 -23.77498,4.1867 -33.07636,8.52446 -10.49552,4.97081 -15.59581,9.24383 -25.24968,16.78996 l -9.09276,12.09251 c -1.05028,-1.59699 -0.76972,-3.20836 -0.48917,-5.38084 -2.51778,4.76219 -4.33777,7.97055 -9.02083,11.12137 l 0.41723,-3.99247 c -12.79748,13.99882 -40.00384,12.86942 -40.34913,-10.97031 8.17917,4.61113 23.21388,8.10724 25.03387,5.80527 l 1.95667,-2.10774 c -4.47444,0.14388 -9.92722,-0.12948 -11.95583,-2.99974 -3.92054,-4.40251 -6.29444,-8.59641 2.16529,-11.95584 5.59665,-1.54663 1.53943,0.62585 -0.76972,2.44584 -0.82727,0.84166 -1.33083,1.81999 -0.97834,3.14362 2.30916,-1.81999 9.733,-5.3161 16.71802,-2.79832 4.1939,-6.71886 -5.38803,-6.49586 -11.1933,-9.71861 l -0.76972,2.38109 c -0.62585,-0.9064 -1.95667,-1.19414 -3.21556,-0.28774 l 0.35968,1.82718 c -0.92078,-0.76972 -2.38829,-0.5611 -3.64717,0.28055 -1.95667,-0.43161 -1.95667,-2.10773 0,-3.08607 -3.21556,-0.34529 -5.03555,-2.09335 -5.24417,-5.24416 3.2875,5.24416 8.66834,2.58251 4.96361,-0.69059 -3.28749,-1.89912 -7.62526,-2.17248 -9.99916,-1.26608 -0.97833,0.41723 -1.61137,0.9064 -2.30916,1.68331 l -3.00694,3.98528 c -0.97833,0.55391 -2.3739,1.46031 -3.63998,0.8992 -0.69778,-0.27336 -1.67612,-1.18695 -1.46031,-2.23003 0.0647,-0.9064 0.41723,-1.74805 0.20142,-2.72639 -0.69778,-1.54663 -2.23722,-3.77666 -7.69,0.69779 2.44584,-7.69001 8.94889,-4.33058 9.86248,-1.60419 0.41723,0.76972 0,3.42418 0.5611,3.69754 0.9064,0.13667 2.86307,-4.67587 -2.51777,-7.89862 -3.07888,-1.68331 -11.12137,-0.13668 -10.35165,5.8772 0.48917,1.67612 1.33082,2.3811 2.58971,2.51778 1.4675,0.20861 4.61113,1.61137 1.8128,3.97808 -2.44584,1.61138 -8.11443,-2.23003 -9.64667,-4.7478 -4.47445,1.11501 -11.68248,4.95642 -13.84776,9.7258 1.74805,0.20142 3.14362,0.20142 5.45997,0.48197 -3.64718,2.73359 -5.8844,5.80527 -6.99941,12.09252 1.88473,-1.95668 6.15775,-2.65446 6.92028,-2.65446 -4.24425,6.07143 -4.03563,12.07813 -4.10038,12.51694 1.34522,-0.43162 5.57508,-2.23003 6.48148,-2.09335 -2.17248,2.86307 -4.47445,10.14303 -1.05028,15.52388 l 3.77667,-4.33777 c -0.28056,3.85579 1.81999,7.27277 3.35943,8.67553 4.33057,4.47445 9.99916,8.33024 16.14972,11.89109 3.63998,2.09335 7.06416,3.71192 11.26524,5.10749 3.84141,1.19414 6.08582,1.1222 8.53166,0.9064 3.00694,-0.9064 0.76972,-2.58252 -2.23722,-3.71192 0.13668,-2.23003 4.47444,-10.83363 7.83387,-11.39473 2.16529,6.57499 -5.17942,2.51777 -3.28749,9.93442 7.40945,1.12221 4.19389,11.18611 2.23722,14.4736 -2.79832,3.00695 -6.92747,5.24417 -9.65386,6.51025 -5.03555,2.23003 -24.05554,7.40226 -25.8036,12.64642 -1.1222,2.73358 -0.98552,4.76939 2.30916,7.83388 l 0.13668,-3.49611 c 1.67612,2.10773 2.45303,3.43136 4.40251,3.78385 -0.20861,-1.39556 -0.48917,-3.01413 -0.34529,-4.05721 0.69778,1.53944 3.98527,3.43137 5.52471,3.8414 -0.5611,-1.17975 -0.84165,-4.12915 -0.28055,-4.1867 1.12221,1.25889 2.58971,2.09335 4.05721,2.36671 -1.05027,-4.12196 -0.84165,-6.28724 2.7264,-8.66834 2.44583,-1.68331 6.64692,-3.20836 10.71133,-4.68306 2.64726,-0.9064 22.72471,-6.01388 26.14169,-9.64667 -1.18695,-0.97834 -5.02836,-1.54663 -4.68306,-1.54663 0.20862,-0.13668 8.11443,-1.04308 8.88415,-0.97114 -0.14388,-0.5683 -8.04249,-4.83413 -9.02083,-4.83413 10.35165,-1.53225 12.51694,-2.79833 13.84776,-11.74002 2.16529,0.26616 2.86307,2.92781 3.63279,5.44558 19.02718,-6.56779 26.85386,-30.83914 53.36243,-39.65135 2.30916,-0.76253 3.77666,-0.9064 5.66859,-0.42442 -3.92053,3.08607 -7.13609,14.05637 -3.35943,18.12078 4.06441,5.80527 12.23638,9.30138 19.09192,11.53141 8.81221,2.58971 12.09971,2.0286 18.96244,6.99222 2.02142,6.65411 5.02836,13.58159 3.13643,19.37247 -0.62585,3.64718 -20.20694,4.89887 -25.52304,9.51719 -3.00694,3.28749 -3.07888,7.13609 -0.14387,11.46666 0.42442,-1.66892 0.91359,-3.41698 2.17248,-4.54638 0.48917,1.81999 2.23722,4.06441 3.77666,5.03555 0.55391,-1.67612 1.11501,-3.35224 1.88473,-4.53919 0.35249,1.88474 2.44584,4.1939 3.98528,4.74781 0.28775,-1.74806 0.63304,-2.99975 1.4675,-4.05002 0.70498,1.25169 2.17248,1.81999 3.43137,1.81999 -0.14387,0 -1.05027,-4.1939 -0.48917,-6.51025 1.05747,-7.26558 21.96219,-7.47419 20.55943,-11.12137 l -6.63973,-11.94864 c -3.71192,-6.79079 4.81974,-17.77548 10.48833,-22.52329 -2.93501,-2.58251 -5.87001,-3.07168 -9.02083,-2.65445 1.18695,-5.3161 8.74028,-8.47411 9.43806,-8.74027 -1.60418,-2.10774 -3.56805,-2.38829 -7.06416,-2.17968 2.17248,-7.76194 2.87027,-12.58168 1.05028,-20.76085 11.5386,-1.05746 29.44357,-3.57524 32.52245,-17.00577 1.33082,-5.87001 -1.61138,-11.25804 -5.10749,-15.52387 -4.26583,-5.10749 -10.0711,-7.83388 -13.35859,-12.65362 -4.61112,-6.84835 -1.25889,-17.27193 10.21497,-18.95524 -13.71108,-2.99975 -18.18552,5.74052 -19.02718,11.96302 -3.49611,-4.76219 -0.0647,-15.0419 6.43831,-19.2286 -11.75441,0.27336 -18.04885,11.74002 -17.55968,18.17833 m -186.02757,70.7063 c 0.0144,0.0288 0.0144,0.0216 0.0216,-0.007 -0.007,0 -0.0144,0.007 -0.0216,0.007"
         id="path6504"
         style="fill:white;fill-opacity:1;fill-rule:nonzero;stroke:none" />
    </g>
  </g>
</svg>
