<?xml version="1.0" encoding="UTF-8" standalone="no"?>
<!-- Created with Inkscape (http://www.inkscape.org/) -->

<svg
   xmlns:dc="http://purl.org/dc/elements/1.1/"
   xmlns:cc="http://creativecommons.org/ns#"
   xmlns:rdf="http://www.w3.org/1999/02/22-rdf-syntax-ns#"
   xmlns:svg="http://www.w3.org/2000/svg"
   xmlns="http://www.w3.org/2000/svg"
   xmlns:sodipodi="http://sodipodi.sourceforge.net/DTD/sodipodi-0.dtd"
   xmlns:inkscape="http://www.inkscape.org/namespaces/inkscape"
   id="svg2"
   version="1.1"
   inkscape:version="0.48.5 r10040"
   width="500"
   height="527"
   xml:space="preserve"
   sodipodi:docname="lukko_lehvaslogo.pdf"><metadata
     id="metadata8"><rdf:RDF><cc:Work
         rdf:about=""><dc:format>image/svg+xml</dc:format><dc:type
           rdf:resource="http://purl.org/dc/dcmitype/StillImage" /><dc:title></dc:title></cc:Work></rdf:RDF></metadata><defs
     id="defs6" /><sodipodi:namedview
     pagecolor="#ffffff"
     bordercolor="#666666"
     borderopacity="1"
     objecttolerance="10"
     gridtolerance="10"
     guidetolerance="10"
     inkscape:pageopacity="0"
     inkscape:pageshadow="2"
     inkscape:window-width="1052"
     inkscape:window-height="835"
     id="namedview4"
     showgrid="false"
     inkscape:zoom="0.78294454"
     inkscape:cx="155.37456"
     inkscape:cy="177.02221"
     inkscape:window-x="0"
     inkscape:window-y="0"
     inkscape:window-maximized="0"
     inkscape:current-layer="g10" /><g
     id="g10"
     inkscape:groupmode="layer"
     inkscape:label="lukko_lehvaslogo"
     transform="matrix(1.25,0,0,-1.25,0,527)"><path
       d="m 217.69056,225.61726 c 0.13414,-12.73692 -7.1371,-16.07361 -8.36748,-17.51902 0,-3.58174 6.88321,-77.6891 6.88321,-77.6891 0,0 -5.68093,-8.27039 -17.39213,-8.20693 -11.27043,0.0617 -16.35758,7.94252 -17.12424,9.09531 -0.51292,1.00471 6.60819,76.46398 6.60819,76.46398 0,0 -14.27231,5.70401 -9.89039,22.13029 5.64935,21.22233 39.03782,18.03183 39.28284,-4.27453"
       style="fill:#21529e;fill-opacity:1;fill-rule:nonzero;stroke:none"
       id="path12"
       inkscape:connector-curvature="0" /><path
       d="m 100.35177,211.65697 c 0,0 10.28513,0.81261 12.04427,13.80872 4.11758,-0.12472 7.49132,-0.12472 7.49132,-0.12472 l 0,-37.47067 4.81208,-4.5229 0,-0.5306 -23.92639,-0.009 0,0.55704 5.33381,4.52479 0.0176,17.7446 -5.77273,0 0,6.02296"
       style="fill:#21529e;fill-opacity:1;fill-rule:nonzero;stroke:none"
       id="path14"
       inkscape:connector-curvature="0" /><path
       d="m 278.67696,201.30843 c 0,-4.78198 2.51179,-8.64761 5.61046,-8.64761 3.08114,0 5.6141,3.86563 5.6141,8.64761 0,4.77159 -2.53296,8.63884 -5.6141,8.63884 -3.09867,0 -5.61046,-3.86725 -5.61046,-8.63884 z m -11.15251,-6.32611 c -3.08101,7.32202 -3.23611,17.19475 0.23796,25.06498 4.24101,9.67703 12.73358,10.5195 17.50507,10.5195 4.79089,0 12.00196,-1.27611 14.98964,-6.59765 -0.36299,-2.36899 -3.49889,-3.33491 -4.68689,-3.38242 -1.99347,1.70095 -6.16231,2.67742 -8.98778,2.4395 -3.76507,-0.29965 -6.89198,-2.5488 -7.61298,-7.63933 1.86317,1.17025 3.92024,2.33904 10.30989,2.33904 4.69926,0 13.56721,-4.62529 13.07186,-15.78812 -0.44774,-10.53725 -8.50132,-18.05147 -18.89404,-18.05147 -8.63878,0 -12.95203,3.97475 -15.93273,11.09597"
       style="fill:#21529e;fill-opacity:1;fill-rule:nonzero;stroke:none"
       id="path16"
       inkscape:connector-curvature="0" /><path
       d="m 141.63686,211.68347 c 0,-4.55116 2.44482,-8.22639 5.47132,-8.22639 3.01238,0 5.46602,3.67523 5.46602,8.22639 0,4.54419 -2.45364,8.22801 -5.46602,8.22801 -3.0265,0 -5.47132,-3.68382 -5.47132,-8.22801 z m 22.9446,4.96192 c 3.13225,-7.90551 1.41013,-19.78943 -0.9818,-24.44108 -2.63872,-5.1381 -7.50014,-11.68289 -17.36047,-11.68289 -4.79799,0 -15.448,3.38255 -16.44918,9.1236 0.35254,2.36725 2.75152,3.25382 3.9043,3.30842 1.9971,-1.70095 7.32562,-4.84554 12.16061,-4.25849 3.7439,0.46349 6.81446,5.52949 6.7651,10.35556 -2.49946,-1.70794 -4.39785,-4.33262 -10.78573,-4.33262 -4.70279,0 -14.76407,3.79503 -14.16476,15.53953 0.55347,10.53025 8.91731,17.35335 19.28882,17.35335 8.65115,0 15.00378,-4.33599 17.62311,-10.96538"
       style="fill:#21529e;fill-opacity:1;fill-rule:nonzero;stroke:none"
       id="path18"
       inkscape:connector-curvature="0" /><path
       d="m 259.23297,222.17838 c 2.76038,-6.95905 -3.40019,-11.68465 -3.40019,-11.68465 0,0 7.62346,-2.79561 7.73456,-10.80332 0.1441,-8.6671 -9.16934,-17.03089 -18.22764,-16.88285 -7.57421,0.0894 -13.66239,5.08187 -14.63199,8.21575 -1.05579,3.47427 0.61883,8.64761 1.91602,9.59942 1.29909,0.95198 6.61714,0.52885 6.57131,-1.09624 -0.0349,-1.93891 -0.87261,-7.78742 4.87195,-7.91796 4.02247,-0.0805 6.29977,4.3803 6.29977,7.66227 0,5.90502 -3.89379,8.09592 -7.90735,8.20703 0,1.78369 0.0349,2.12219 0.0349,2.12219 0,0 6.28036,1.54412 5.97009,7.03125 -0.3014,5.18221 -6.54481,7.17221 -8.23164,3.85489 -0.31553,-0.63107 0.62745,-2.55754 0.62745,-3.7103 0,-1.08941 -3.32784,-4.03296 -5.59463,-3.71046 -1.96713,0.26443 -5.00955,3.24323 -4.68164,6.71749 0.31552,3.47238 3.62046,6.6205 6.38609,8.36383 3.35431,2.10631 17.57209,5.91009 22.26249,-5.96834"
       style="fill:#21529e;fill-opacity:1;fill-rule:nonzero;stroke:none"
       id="path20"
       inkscape:connector-curvature="0" /><path
       d="m 129.84994,164.32265 0,-18.61894 c 0,0 0,-1.64632 5.34792,-1.4348 5.34263,0.20976 8.82213,3.88489 8.60532,10.63058 -0.28907,9.51658 -7.22868,10.4314 -10.07715,10.33798 -2.03059,-0.0811 -3.87609,-0.91482 -3.87609,-0.91482 z m -24.5398,7.36085 47.3187,0.009 c 0,0 13.24112,-4.02413 13.24112,-16.91973 0,-11.7111 -15.2012,-15.38447 -15.2012,-15.38447 0,0 4.7539,-1.27088 13.58484,-8.23866 4.48245,-3.52707 12.22588,-15.10067 20.12787,-19.59545 8.77097,-5.00243 19.09134,-4.21804 19.09134,-4.21804 0,0 0.009,-5.35495 -5.33906,-8.316216 -4.79263,-2.659849 -11.19286,-3.373722 -14.14531,-3.502391 -3.29093,-0.144586 -11.53669,2.386637 -21.40761,11.090627 -5.97895,5.43779 -13.29577,16.78225 -19.22009,22.34696 -4.75213,4.46305 -7.06475,7.41549 -7.06475,7.41549 l -6.194,0 0,-15.27342 7.23575,-15.91502 c 0,0 -0.2556,-0.71387 -1.37136,-0.84255 -10.85096,5.07469 -13.72939,8.60177 -20.89814,14.77989 -3.28912,2.84491 -7.59531,4.70981 -7.59531,4.70981 l 0,1.74503 4.5935,3.65751 0,33.84829 -6.76158,7.60587 0.005,0.99766"
       style="fill:#21529e;fill-opacity:1;fill-rule:nonzero;stroke:none"
       id="path22"
       inkscape:connector-curvature="0" /><path
       d="m 222.61715,172.84333 35.18975,0 0,-1.32552 c 0,0 -7.02065,-3.3279 -7.35031,-7.30445 0,-5.50125 0,-51.88379 0,-51.88379 0,0 11.08902,0.22737 17.62495,5.58585 5.6582,4.60582 10.21989,9.12352 11.8469,12.86211 -3.41967,0.23795 -5.28272,1.09462 -5.40255,4.80852 -0.10865,3.52708 5.76917,6.39845 10.77858,6.39845 5.25449,0 8.91207,-2.75503 8.08008,-6.50067 -1.75556,-8.00071 -14.72712,-22.8176 -26.34471,-29.87175 -11.39915,-6.921956 -40.9238,-12.818032 -44.88281,-11.27219 0,1.098139 0,1.445375 0,1.445375 0,0 9.37569,7.988365 9.08665,13.390905 -0.1922,3.26269 -1.02944,50.21985 -1.02944,54.58065 -0.22381,3.50946 -7.59709,7.76099 -7.59709,7.76099 l 0,1.32552"
       style="fill:#21529e;fill-opacity:1;fill-rule:nonzero;stroke:none"
       id="path24"
       inkscape:connector-curvature="0" /><path
       d="m 97.942201,247.29622 c 0,0 -10.091247,-13.47383 -14.096021,-31.89357 -3.900771,-17.95262 -2.152199,-41.48234 0.398373,-54.83623 5.531227,-28.9957 44.399727,-89.343764 117.774087,-86.594017 36.33028,1.353714 83.76007,19.865137 104.95789,72.718397 8.70398,21.76528 10.32035,50.47718 5.64933,69.01326 -5.45554,21.59783 -15.72304,35.8349 -15.72304,35.8349 0,0 -7.76979,-11.39559 -21.20656,-11.39559 -11.27042,0 -40.48495,22.79645 -48.86806,22.79645 -9.27521,0 -19.82825,-7.46135 -28.97299,-7.84034 -9.15523,-0.39838 -15.00899,6.31907 -24.84117,6.31907 -9.82508,0 -42.74812,-25.05794 -56.22192,-24.62597 -12.99434,0.41588 -18.849919,10.50364 -18.849919,10.50364 z m 21.638459,39.00927 c 4.30971,0.37551 155.77707,0 155.77707,0 0,0 8.47322,26.94751 1.18814,50.64817 -13.05428,42.50117 -57.59332,58.25051 -80.89221,57.4644 -23.30238,-0.78611 -67.32489,-13.12119 -79.58422,-67.17653 -4.9901,-22.00498 4.10524,-40.12868 3.58878,-40.91129 l -0.0776,-0.0245 z m -33.037595,30.36179 c 0,53.50365 52.195985,104.93272 111.051375,104.93272 58.85877,0 106.64106,-47.94606 108.84261,-101.42319 0.44949,-10.79805 0.48472,-26.49803 -10.16355,-55.17651 29.83662,-35.3942 31.6363,-79.40586 19.45097,-115.85941 C 295.75355,88.278117 228.21178,66.826585 200.0074,66.826585 c -30.53455,0 -118.124813,22.420996 -124.852901,117.533895 -2.293226,32.41538 12.655915,61.40571 24.224283,78.33082 -11.103029,23.44325 -12.835717,40.69436 -12.835717,53.97598"
       style="fill:#21529e;fill-opacity:1;fill-rule:nonzero;stroke:none"
       id="path26"
       inkscape:connector-curvature="0" /><path
       d="m 67.717822,302.67714 c 0,0 7.327386,-37.30671 -1.466537,-60.55076 -4.644621,-12.23638 -11.75521,-19.8387 -17.208893,-31.08446 -4.203944,-8.58073 -4.81735,-17.16475 -6.722787,-20.65479 -5.867909,-10.77876 -6.453112,-18.84112 -6.708703,-26.78717 -0.211511,-6.53417 7.138792,-27.40402 11.325111,-36.81837 0.85489,0 1.681592,0.21152 1.681592,0.21152 0,0 -16.583139,31.88292 -7.128211,55.61177 4.263877,10.71695 20.980972,22.31525 27.280734,26.39932 -1.262064,-3.6822 -6.507759,-15.54841 -4.616418,-39.47819 1.630473,-20.58607 -9.470784,-30.06739 -9.657635,-40.29433 -0.07401,-4.33261 -1.23915,-10.167 2.941894,-18.60307 3.387828,-6.85498 9.874429,-12.84272 14.982629,-19.706516 4.748627,-6.398431 8.314488,-13.054226 11.212311,-16.44558 C 92.220596,64.45758 105.64504,52.473273 105.64504,52.473273 l 0.91835,0.749136 c 0,0 -29.598638,27.086741 -33.684488,42.011157 -4.099955,14.927934 -5.16108,35.843624 2.594634,45.049974 5.910208,-7.37673 16.440367,-26.48215 23.099705,-38.03636 4.822639,-8.390261 5.924319,-39.38833 15.116599,-50.313274 8.60003,-10.239275 25.59387,-20.24764 25.59387,-20.24764 l -19.72596,0 c 0,0 -20.947497,12.595935 -28.96409,14.926181 C 82.192814,49.074871 64.994508,48.040189 45.679244,67.877122 34.618526,79.248026 32.461021,84.447866 29.316437,93.453274 33.35646,92.55961 52.343875,86.635315 58.759964,84.276881 73.231431,78.900778 87.449075,61.33062 87.449075,61.33062 l 0.835503,0.63103 c 0,0 -7.107054,9.359711 -9.802182,11.674073 -5.3391,4.561766 -12.835708,8.427267 -13.817509,9.752791 -7.348543,9.807418 -15.211783,15.081281 -19.613159,17.843356 -10.487838,6.53594 -33.79325,19.22354 -39.6657392,32.71668 -6.5557151,15.03722 -4.40221642,33.94877 -4.40221642,33.94877 0,0 21.39834062,-18.95738 26.93839162,-23.29175 5.242171,-4.08408 23.843545,-31.71901 23.843545,-31.71901 l 1.03822,0.38427 -15.511451,22.52322 c 0,0 0.0634,5.50478 -3.144579,12.25751 -3.995965,8.38319 -28.9684938,46.0248 -31.2811083,52.37024 -3.14499001,8.5824 -6.5084584,38.64279 6.4989387,54.59482 6.9473616,-13.50194 11.5727656,-24.52028 16.5822606,-37.84954 5.004192,-13.29926 7.12116,-44.20388 7.12116,-44.20388 l 1.078749,0 -1.078749,20.93333 c 0,0 3.518264,7.3944 3.377259,20.42034 -0.118074,12.4268 0.292606,51.16292 7.778633,62.99023 7.746901,12.27523 23.49278,25.37004 23.49278,25.37004"
       style="fill:#21529e;fill-opacity:1;fill-rule:nonzero;stroke:none"
       id="path28"
       inkscape:connector-curvature="0" /><path
       d="m 332.29012,303.3399 c 0,0 -7.35031,-37.30308 1.46118,-60.5385 4.64291,-12.26447 11.74642,-19.84578 17.22293,-31.0827 4.18634,-8.60885 4.81571,-17.19285 6.69987,-20.66714 5.85918,-10.77504 6.44436,-18.86746 6.71941,-26.7818 0.20093,-6.54474 -7.13186,-27.41459 -11.32693,-36.82189 -0.84073,0 -1.69033,0.20095 -1.69033,0.20095 0,0 16.59901,31.91289 7.13873,55.64362 -4.27977,10.6852 -20.96863,22.28524 -27.27715,26.36218 1.24264,-3.65572 6.51644,-15.52191 4.6163,-39.46232 -1.6551,-20.58431 9.44266,-30.07446 9.64359,-40.27672 0.0716,-4.35904 1.22496,-10.19167 -2.93483,-18.63655 -3.40905,-6.84617 -9.87087,-12.826851 -14.96326,-19.688887 -4.76276,-6.419594 -8.32865,-13.064812 -11.23522,-16.445579 -8.59129,-10.029521 -22.00154,-22.003243 -22.00154,-22.003243 l -0.93245,0.740313 c 0,0 29.60749,27.09379 33.69321,42.021732 4.1142,14.919134 5.16649,35.824244 -2.60517,45.037644 -5.90489,-7.38554 -16.43505,-26.47511 -23.09971,-38.03461 -4.84385,-8.384955 -5.91374,-39.372449 -15.10957,-50.322076 -8.60182,-10.212836 -25.61492,-20.23177 -25.61492,-20.23177 l 19.7471,0 c 0,0 20.93152,12.58008 28.96753,14.927927 8.40968,2.450093 25.59563,1.427757 44.8933,21.26293 11.08722,11.370903 13.23407,16.563679 16.38754,25.56733 -4.04884,-0.895428 -23.02571,-6.80033 -29.44353,-9.178143 -14.46968,-5.372584 -28.70145,-22.916302 -28.70145,-22.916302 l -0.825,0.604586 c 0,0 7.11415,9.368528 9.79155,11.672316 5.33744,4.572326 12.83582,8.418447 13.81225,9.736912 7.35029,9.826809 15.22769,15.107735 19.61856,17.86277 10.50019,6.52359 33.79197,19.21296 39.66159,32.70256 6.55534,15.05662 4.42262,33.96288 4.42262,33.96288 0,0 -21.41473,-18.95033 -26.94762,-23.28469 -5.24572,-4.07704 -23.86658,-31.72783 -23.86658,-31.72783 l -1.01344,0.38249 15.52194,22.51618 c 0,0 -0.0751,5.51889 3.13403,12.27514 3.98548,8.40082 28.9765,46.02652 31.2538,52.3526 3.18872,8.58241 6.52717,38.66216 -6.49187,54.61244 -6.9272,-13.51082 -11.56309,-24.52204 -16.58136,-37.84064 -4.99007,-13.31686 -7.10002,-44.2251 -7.10002,-44.2251 l -1.08055,0 1.08055,20.92454 c 0,0 -3.51128,7.40314 -3.37555,20.43272 0.10166,12.43014 -0.2819,51.16465 -7.76971,62.99913 -7.75042,12.26807 -23.49982,25.3646 -23.49982,25.3646"
       style="fill:#21529e;fill-opacity:1;fill-rule:nonzero;stroke:none"
       id="path30"
       inkscape:connector-curvature="0" /><path
       d="m 121.30279,82.997205 c 0,0 8.13645,-10.0542 14.64948,-12.79161 6.51305,-2.732118 22.06151,-7.602335 29.51228,-11.853865 7.44901,-4.240954 15.48851,-15.356266 20.44331,-22.907477 4.94955,-7.568857 7.3257,-11.993129 16.03682,-11.672321 9.81802,0.373681 15.86923,14.422064 23.32525,24.084939 7.44901,9.645254 19.26418,15.384471 26.20197,17.640678 5.93313,1.903665 22.78946,9.791556 29.54405,21.795245 0.76851,-12.003689 -2.17508,-24.335234 -6.94844,-35.140317 -5.54712,-12.622394 -15.03547,-19.405086 -28.14449,-26.700731 -11.41324,-6.333225 -35.30783,-9.185202 -35.30783,-9.185202 l 0,-1.307891 c 0,0 15.23469,0.731502 24.66846,3.537653 8.67578,2.578765 14.63363,8.363803 24.33355,10.364412 10.00849,2.058793 30.14686,1.544095 35.10167,0.934216 4.98131,-0.611642 18.85706,-7.075301 20.595,-12.412628 -15.81462,0.445953 -20.5404,-2.36901 -31.60989,-6.206314 C 268.08154,5.7540601 258.82045,1.2293215 247.24862,0.11355972 236.28483,-0.95637285 215.79568,5.7734503 208.28143,10.240021 202.51748,13.650763 195.65716,10.195951 191.49735,7.9926347 184.38147,4.2275995 174.93534,1.2293215 159.12778,1.0442425 144.21035,0.87150205 120.97317,9.2652731 113.21215,11.348734 c -7.75923,2.120476 -16.768203,4.341421 -23.327079,2.677474 2.874905,6.572952 13.167089,13.24637 19.063209,14.462602 5.88905,1.205655 33.18741,1.48944 33.18741,1.48944 0,0 15.67714,-9.798605 22.94107,-12.23108 10.05424,-3.347278 28.54628,-3.546458 28.54628,-3.546458 l 0,1.314941 c 0,0 -28.50574,1.307891 -43.39319,11.282763 -14.89097,10.008363 -23.11204,23.133105 -24.66671,32.485768 -1.55819,9.36146 -4.26035,23.713021 -4.26035,23.713021"
       style="fill:#21529e;fill-opacity:1;fill-rule:nonzero;stroke:none"
       id="path32"
       inkscape:connector-curvature="0" /></g></svg>