<?xml version="1.0" encoding="UTF-8" standalone="no"?>
<svg xmlns:rdf="http://www.w3.org/1999/02/22-rdf-syntax-ns#" xmlns="http://www.w3.org/2000/svg" height="132.68003" width="213.7291" version="1.1" xmlns:cc="http://creativecommons.org/ns#" xmlns:dc="http://purl.org/dc/elements/1.1/" viewBox="0 0 213.7291 132.68003"><defs><clipPath id="clip-path" transform="translate(0.00141 -0.001)"><rect width="213.72764" height="132.68071" fill="none"/></clipPath><clipPath id="clip-path-2" transform="translate(0.00141 -0.001)"><path d="M119.77965,71.12789s-.02665.05194-.06457.15023c.22464-.17269.26114-.22043.23308-.22043a.77894.77894,0,0,0-.16851.0702m-66.944.139c-8.4042,1.36466-23.36769,11.52518-23.36769,11.52518s-2.52434.67812-1.69459,1.81954c.82975,1.14,29.42016,48.72757,48.85533,44.81611,1.67351-.337,14.46648-2.5833,24.00227-17.24916,13.96386-21.47652,21.0511-8.8773,22.66849-8.53333a4.4844,4.4844,0,0,0,2.975-.47454s2.0063-1.46855,3.55487-6.42035c1.54716-4.9518-1.05581-10.78951-5.94442-15.70059-5.38284-5.4081-4.4548-9.01067-4.16979-9.77162-.15442.11933-.39872.29763-.775.563-1.59069,1.11476-8.00826-.23446-12.27492-.51666-4.268-.2808-16.42363-2.24214-26.7414-3.83985a31.75186,31.75186,0,0,0-4.8549-.36925c-8.1655,0-15.18676,3.0073-22.23325,4.15154" fill="none"/></clipPath></defs><g clip-path="url(#clip-path)"><path d="M186.28023,78.28771c-.73288-3.21508-5.45165-4.98829-13.90495-7.13778-18.79072-4.7763-48.55485-5.32525-48.78369-5.33087h-.03792c-1.81533,0-3.7065,2.71107-4.79174,4.27369-.46612.782-9.32379,1.22987-31.31274-2.9722C56.962,62.1856,27.4295,82.94187,27.13468,83.14546l-.77358.53631.4956.80026c.7441,1.2004,18.43271,29.56478,35.27893,41.92112a23.94294,23.94294,0,0,0,12.40127,6.176,13.52184,13.52184,0,0,0,4.54323-.233c6.93142-1.47417,17.05261-7.80467,24.67478-21.1508,2.99325-5.23961,6.21114-9.86148,9.56664-10.54662,3.88054-.79042,7.16865,1.70583,8.93484,3.04662a2.29581,2.29581,0,0,0,2.273.59248,15.71281,15.71281,0,0,0,3.29792-1.87149c1.42784,1.4868,3.58855,2.01609,8.612,1.477,7.48875-.80869,12.52758,3.82722,14.43978,5.50356a8.52287,8.52287,0,0,0,1.97258,1.425c.97016.26816,2.0512-1.543,4.6668-3.98588.93507-.87326,2.186-1.9838,3.83427-3.40882-.37349.0042-1.65531.03368.05475-.47455a5.18912,5.18912,0,0,0,1.18353-.59247c2.27442-1.38151,3.58713-3.055,5.95145-5.04587.0856-.15725.03929-.271-.22747-.32151-.62478-.11933-2.25335-.53491-1.22989-.46612a7.40758,7.40758,0,0,0,3.67282-1.07965A56.23351,56.23351,0,0,0,176.02,91.04559c.56578-.58546.86484-1.06.41556-1.133-.74269-.12356-1.38709-.285-1.38709-.285a6.64087,6.64087,0,0,0,4.60639-1.64967c.16149-.139,7.09847-7.61372,6.62537-9.6902" transform="translate(0.00141 -0.001)" fill="#fff"/><path d="M119.77939,71.12845s-1.981,3.80616,4.10659,9.92185c4.88862,4.91108,7.49017,10.74738,5.943,15.70059-1.54857,4.9518-3.55487,6.41895-3.55487,6.41895a4.47224,4.47224,0,0,1-2.97358.47454c-1.6188-.344-8.70741-12.9432-22.6699,8.53333-9.53437,14.66585-22.32871,16.91361-24.00085,17.25056-19.43655,3.91146-48.027-43.67608-48.85534-44.8161-.83116-1.14143,1.69318-1.81954,1.69318-1.81954S44.43254,72.63211,52.83532,71.266c8.40415-1.36465,16.77179-5.3786,27.08956-3.78089,10.3164,1.59632,22.47336,3.55906,26.74,3.83986,4.268.28219,10.6856,1.63,12.27488.51525s.8396-.71181.8396-.71181" transform="translate(0.00141 -0.001)" fill="#de8444"/></g><g clip-path="url(#clip-path-2)"><path d="M28.59889,84.07038s42.82527-15.87889,75.05619-8.80289c35.52744,7.79765,16.83641-10.57329,16.83641-10.57329l-19.93638,1.908-24.2339-3.4987-28.89791,6.096L32.0077,77.78341l-6.59443,5.85174Z" transform="translate(0.00141 -0.001)" fill="#fff"/></g><g clip-path="url(#clip-path)"><path d="M175.36476,89.937c1.74091-.47735,4.36071-3.23614,4.36071-3.23614s2.46256-5.29157.97016-3.21649c-3.802,5.28313-14.5002,1.63983-16.36892,1.78023-2.22386.16848,10.28692,4.87879,11.038,4.6724" transform="translate(0.00141 -0.001)" fill="#75c4f4"/><path d="M167.76483,96.55082c1.46853-.40574,3.68259-2.73353,3.68259-2.73353s2.96377-4.04483,1.3436-2.6549c-5.18348,4.44917-12.75227,1.78445-14.32612,1.47277-1.8392-.36364,8.66671,4.09115,9.29993,3.91566" transform="translate(0.00141 -0.001)" fill="#75c4f4"/><path d="M160.12749,103.18753a8.70264,8.70264,0,0,0,2.78266-1.696s3.50709-3.677,2.30951-2.73915c-5.36879,4.20209-11.06329,1.074-12.15555.75534-1.27483-.37486,6.60424,3.76264,7.06338,3.6798" transform="translate(0.00141 -0.001)" fill="#75c4f4"/><path d="M28.50634,84.16024s41.96184-20.94582,86.41572-6.62955c6.41752,2.06664,6.93419,13.39247,5.82085,15.2092a22.43257,22.43257,0,0,0-11.52238-12.19627C80.508,68.11849,28.50634,84.16024,28.50634,84.16024" transform="translate(0.00141 -0.001)" fill="#824f1e"/><path d="M124.31264,71.5502c.71039.28641,28.50476,1.43346,30.22746,2.22951.4689.21621-.0674.52228-1.17654.88449-1.89254.61775-8.72147,3.64752-10.9566,4.26667a8.27734,8.27734,0,0,1-7.54771-1.28183c-3.743-2.79951-6.76011-5.42774-6.2856-5.07955.47315.34818,8.33821,5.533,10.69687,5.2733,5.31823-.584,7.66-3.50712,9.40378-3.399s-21.34455-.36082-22.55057-1.24391a10.1311,10.1311,0,0,1-1.81109-1.64967" transform="translate(0.00141 -0.001)" fill="#001b3e"/><path d="M137.37125,74.72892a7.91573,7.91573,0,0,1-3.44115-.18251,3.91656,3.91656,0,0,0,3.1435,1.53595c2.16209.0379,2.61557-2.84445,2.61557-2.84445a6.41171,6.41171,0,0,1-2.31792,1.491" transform="translate(0.00141 -0.001)" fill="#001b3e"/><path d="M131.582,86.1241s4.30454,5.61588,3.48464,9.87272c-.39593,2.0526-.8845,2.51451.05335,2.60717.93926.09126,7.44385-.49,11.90426,1.54015,3.41866,1.5542-.60511-1.4517-5.57517-2.207-4.00133-.60932-4.14452-1.008-4.21894-2.48923A11.47456,11.47456,0,0,0,131.582,86.1241" transform="translate(0.00141 -0.001)" fill="#75c4f4"/><path d="M114.67428,106.6288h.907q.65913,0,.65845.52649c0,.36784-.24006.55035-.72024.55035h-.84517Zm1.70157,1.55139a1.03294,1.03294,0,0,0,.71463-1.01508,1.05407,1.05407,0,0,0-.35939-.82272,1.60748,1.60748,0,0,0-1.09373-.3187h-1.78581v3.84968h.82273v-1.55559h.921l.62477,1.55559h.86485Zm.96172,1.755a2.67618,2.67618,0,0,1-3.86092,0,2.85,2.85,0,0,1-.00137-3.97043,2.61491,2.61491,0,0,1,1.94589-.82553,2.58066,2.58066,0,0,1,1.92064.82694,2.85177,2.85177,0,0,1-.00424,3.969m.42966-4.3495a3.18013,3.18013,0,0,0-2.34187-.98278,3.345,3.345,0,0,0-.00839,6.68991,3.19437,3.19437,0,0,0,2.346-.98417,3.34714,3.34714,0,0,0,.00424-4.723" transform="translate(0.00141 -0.001)" fill="#001b3e"/><path d="M176.06872,87.34416c-4.24842.76656-11.20931-2.23091-12.727-2.24074-1.84061-.01263,6.11006,3.90023,9.35323,5.175-.14461.855-2.25617,3.70507-5.47128,4.64152-3.61382.41-9.37709-2.84585-10.673-2.99467-1.64686-.18814,5.68889,4.39442,7.86644,5.42634a9.17811,9.17811,0,0,1-5.08378,4.52359c-2.47237-.02527-6.06515-2.45835-6.91594-2.62682-1.17372-.23306,4.0041,3.51132,5.20593,4.18943q-1.23409,1.13723-2.099,1.94871c-1.09788,1.02491-1.94027,1.81253-2.35164,2.10876-.1488-.12354-.34816-.29763-.53068-.45769a19.036,19.036,0,0,0-15.39315-5.2733c-4.85772.52227-6.86539-.0702-7.66566-.52228-.22323-1.18635,5.07255-10.84005-3.11681-18.21932-5.45444-4.91529-6.506-8.92221-6.6899-10.906l.00137-.0014c1.38714-2.02873,3.18563-3.93111,3.76966-3.9971.22747.00561,23.57968-.16566,45.46615,5.59762,7.11813,1.80832,12.45041,3.56749,12.95021,5.7619.45348,1.36044-2.3306,6.21677-5.89523,7.86644M119.17565,72.60107c-.14182,1.89676.71741,5.25647,6.10166,10.47081,7.10409,6.87945,3.1463,14.97053,2.27721,16.53034,0,0-2.33338,3.26422-3.44252,2.67736-.18673-.132-.438-.32151-.65563-.48717-1.8715-1.42082-5.76892-4.38039-10.527-3.40884-3.93813.80306-7.6011,4.12767-10.88921,9.88394-4.56568,7.99561-13.42614,18.08312-23.36764,20.1961-5.33506,1.1344-10.50449-.09688-15.36221-3.66015-6.82331-5.00375-14.99443-13.735-23.626-25.24758-5.27894-7.0395-9.84745-13.27031-11.21492-15.41558,4.84791-3.10839,31.70722-18.78512,58.66624-14.423,12.67223,2.0512,21.88226,3.15613,27.376,3.28389,2.78686.06739,4.05042-.14321,4.664-.40014m-1.05156-1.57244-.00561.007M186.284,78.28434c-.73288-3.21508-5.45165-4.9883-13.90494-7.13778-18.79073-4.77631-48.55486-5.32526-48.7837-5.33087h-.03792c-1.81533,0-3.7065,2.71107-4.79174,4.27368-.46611.782-9.32379,1.22988-31.31274-2.9722-30.48719-4.935-60.01969,15.82133-60.31451,16.02491l-.77358.53631.4956.80026c.7441,1.2004,18.43271,29.56479,35.27893,41.92112a23.943,23.943,0,0,0,12.40127,6.17606,13.52235,13.52235,0,0,0,4.54323-.233c6.93142-1.47418,17.05261-7.80467,24.67478-21.1508,2.99325-5.23962,6.21114-9.86148,9.56664-10.54522,3.88054-.79183,7.16865,1.70443,8.93484,3.04521a2.29577,2.29577,0,0,0,2.273.59248,15.7128,15.7128,0,0,0,3.29793-1.87149c1.42783,1.4868,3.58854,2.0161,8.612,1.477,7.48875-.80869,12.52758,3.82722,14.43978,5.50356a8.49414,8.49414,0,0,0,1.97258,1.425c.97016.26816,2.0512-1.543,4.6668-3.98588.93507-.87326,2.186-1.9838,3.83427-3.40883-.37349.00421-1.65531.03369.05475-.47455a5.18912,5.18912,0,0,0,1.18353-.59247c2.27442-1.38151,3.58713-3.055,5.95145-5.04587.0856-.15724.03929-.271-.22747-.3215-.62478-.11934-2.25335-.53492-1.22989-.46612a7.40755,7.40755,0,0,0,3.67282-1.07966,56.23436,56.23436,0,0,0,5.26206-4.40143c.56578-.58546.86484-1.06.41556-1.133-.74269-.12355-1.38709-.2836-1.38709-.2836a6.64644,6.64644,0,0,0,4.60639-1.65108c.16149-.139,7.09847-7.61372,6.62537-9.69019" transform="translate(0.00141 -0.001)" fill="#001b3e"/><path d="M17.58329,28.9462c.85923,1.87149,1.67073,3.63627,2.48223,5.40107.82272,1.78866,1.64545,3.57731,2.51873,5.47548l.10107-.04213c.285-.11793.54333-.22322.81009-.33835,1.17654-.50823,1.93045-.82553,2.66616-1.12317-.75537-1.908-1.47419-3.7135-2.19023-5.51619-.73284-1.84342-1.46434-3.68542-2.23509-5.63273-1.40539.577-2.70828,1.1344-4.153,1.776m4.67525,41.52519-4.44641-8.83658,2.16071-1.08666L6.38946,32.65268A8.44616,8.44616,0,0,1,1.30568,28.81L-.00141,26.21267,2.5608,24.83538c2.67881-1.44048,5.43477-2.80513,8.18795-4.05607,1.97824-.89854,4.97709-2.16491,10.02437-4.23436.26817-.10952.52087-.21481.75532-.3131.41981-.17549.789-.32712,1.0993-.44786l.11512-.04493a7.55643,7.55643,0,0,1,4.90408-.16427l.25412.08846a5.51509,5.51509,0,0,1,3.27128,3.2558l4.84508,13.17484c.16285.44226.3566.94066.57,1.491.52649,1.36043,1.18353,3.05362,1.81109,4.99111a5.3929,5.3929,0,0,1,.09687,2.63384,6.01254,6.01254,0,0,1-.99261,2.23793l-.13616.19374A8.23254,8.23254,0,0,1,35.55271,45.367l-.00282-.00421a3.82247,3.82247,0,0,1-.6444.37206q-.198.09054-.60092.26113-.69918.29482-2.10175.87046l-1.58367.65144c-.91115.37205-2.39657.98-4.40424,1.85464l3.09993,6.75872,1.79713-.80167,4.042,9.05-2.69564,1.24953c-1.192.57563-2.28286,1.10072-3.27406,1.56683l-1.10632.51947q-1.39206.65283-3.17859,1.498Z" transform="translate(0.00141 -0.001)" fill="#001b3e"/><path d="M42.96511,61.378l-3.27268-9.27883,2.86552-.97155q.657-.22323,1.24111-.417L39.62083,37.93173q-2.73771-8.37747-5.50636-16.74513a7.84211,7.84211,0,0,1-5.23961-4.68225L27.87805,13.674l2.83318-.987c3.93817-1.38713,6.784-2.18038,10.38658-3.18421.67671-.18814,1.3801-.38328,2.12279-.59247C46.8948,7.877,50.0467,7.1511,52.0979,6.69763L53.4696,6.393l1.11052.862a3.54759,3.54759,0,0,1,1.28323,1.7339c.30888.91679.58545,1.89676.82131,2.91323.15725.67953.29765,1.279.41839,1.79427.3791,1.61878.50262,2.14807.55035,2.52154.007.05476.01406.1081.01826.15864l.65849,2.65491-2.93712.69777c-1.43486.34118-2.13406.51387-3.57029.8817l-3.83846.99541-1.00666-3.86092c-.74128.20217-1.43624.39873-2.17472.61214l2.95395,9.79548c.62615-.18111,1.21022-.34817,1.77741-.50542l-.37207-1.609,2.93995-.80728L58.30766,23.798l.63322,2.91605c.285,1.07544.54611,2.07226.77636,2.97641l.264,1.04315q.31589,1.26147.73005,2.86972l.73147,2.83461-8.96295,2.51591-.5686-2.0161c-.44226.12355-.89852.25412-1.38572.39592l3.17718,10.53259c.35241-.1011.6992-.19938,1.05439-.29765l-1.05439-4.042,2.89218-.75534c1.60894-.41978,2.44572-.62757,4.0715-1.01366l2.90481-.69075.9,3.76965c.03367.14462.087.34679.15441.60792.24431.94488.65284,2.52855,1.10774,4.71032.0365.17269.06319.3173.08423.43242.07584.23587.132.47314.18814.7062l.03509.14882a3.00856,3.00856,0,0,1-2.23509,3.63628l-.60092.14321c-1.07264.25552-1.52753.36362-1.8083.417-2.03719.53211-4.01816,1.07966-6.2224,1.72267-3.81319,1.112-5.65658,1.70443-9.38973,3.02276Z" transform="translate(0.00141 -0.001)" fill="#001b3e"/><path d="M63.258,55.20041l-2.16071-9.67053,2.916-.65145c.54611-.12214,1.00944-.22463,1.44326-.3187L59.4869,14.50778a7.11987,7.11987,0,0,1-4.963-5.432l-.61355-2.92587,2.92589-.61355c4.52918-.95047,10.40342-1.93746,13.502-2.44289l2.95113-.47876L74.8,11.90482,72.08471,12.9269l-.29345.04773c-.33133.05476-.83395.139-1.38992.23306l5.22277,29.854c.16427-.02527.32571-.05055.48857-.07582l-.58125-4.16839,2.95957-.41416c1.70582-.23727,2.59736-.351,4.34109-.55457l2.96938-.34538,1.5781,13.56516-2.96943.344c-3.55482.41417-5.28592.65987-8.81692,1.25094-3.121.52088-6.19854,1.133-9.40657,1.86728Z" transform="translate(0.00141 -0.001)" fill="#001b3e"/><path d="M84.87433,51.35859l-.55176-4.8844q-.08214-.72445-.20639-2.11157l-.257-2.90621,2.39941-.27237L83.19517,10.46659A7.18342,7.18342,0,0,1,79.20507,4.963l-.365-3.15052,2.97782-.337C86.2825.96874,88.91353.76657,93.48624.47734L96.46968.28921l.6276,9.905-2.95117.18533,2.30112,29.90454,2.544-.16146.63039,9.9359-2.98485.18812c-3.53662.22464-5.2621.37627-8.79028.775Z" transform="translate(0.00141 -0.001)" fill="#001b3e"/><path d="M115.43565,50.40769c-.44367-.01263-.95332-.04493-1.53876-.09546-.32011-.02809-.64445-.06179-.96875-.09548-.29482-.02948-.58968-.06036-.88031-.08564-1.25092-.1081-2.551-.16707-3.81035-.22323l-4.22734-.20639h-.03089c-.09409-.0028-.18813-.007-.28081-.01544l-.351-.01544-.04915-.02668A6.41361,6.41361,0,0,1,99.947,48.08412l-.07862-.0716a5.636,5.636,0,0,1-1.92626-4.25122l.47173-36.42457c.00561-.351.01967-.7806.04353-1.286a3.32905,3.32905,0,0,1-.021-.42822,5.49318,5.49318,0,0,1,2.45974-4.37338l.29482-.19655a10.56024,10.56024,0,0,1,1.04316-.5335l.08282-.0365A8.28482,8.28482,0,0,1,105.226.0066c.29341-.00983.88168-.00842,1.65946.01825,2.325.08424,3.52817.1446,5.85174.28921.28642.01825.69637.04353,1.22427.08a11.03432,11.03432,0,0,1,2.134.36221l.02811-.31868,11.1138,1.0684-2.179,19.25685-2.96939-.33694c-1.92343-.21762-2.85849-.3131-4.76367-.48579l-3.01009-.27095.30464-3.0073q.33908-3.35479.4605-4.68647c.0716-.79042.10673-1.39272.12216-1.81814l-.22045-.03228a27.01908,27.01908,0,0,0-3.16313-.3538c-.91818-.05054-1.75076-.08985-2.48642-.12074l-1.09651,30.71744c1.039.05334,2.054.11793,3.42569.2134.26817.01966.54333.03932.82414.06178l.96171-10.62665,10.44271,1.06421-1.44887,12.727c-.26534,2.34322-.86484,3.83284-1.93466,4.78613a6.08282,6.08282,0,0,1-3.21793,1.70723,8.29756,8.29756,0,0,1-1.8532.1067" transform="translate(0.00141 -0.001)" fill="#001b3e"/><path d="M141.47631,9.25357l.03371.00561-.03371-.00561M132.321,29.8512h0Zm2.06666,3.19121c.45065.07021.89149.14181,1.34219.21763.22742-2.53839.40994-4.72858.61775-7.64884-.20781.834-1.51207,5.57938-1.95994,7.43121m12.03061,22.055-2.91184-.6725c-2.20985-.50964-3.28811-.73989-5.50216-1.17792-.3833-.07582-.85781-.17269-1.42642-.28782l-3.93817-.80026L134.288,43.21l1.25516.15163c.00138-.066-.00424-.44787-.00282-.51667-1.45312-.25692-2.53137-.41136-3.9901-.62477-.01962.06458-.18813.45911-.20776.52369l1.58928.25832-1.26639,9.08509-2.96094-.424c-3.21369-.45909-4.79037-.64863-8.02934-.96312l-2.97641-.28922.92521-9.5133,2.83746.27658c.05335-.16706.10669-.33835.15862-.511,1.25517-4.3172,2.71389-8.67513,3.98307-12.42092,2.03856-5.89806,4.181-11.84106,6.38667-17.71106A7.50312,7.50312,0,0,1,129.923,4.62046l.40013-2.91323s11.61647,1.55841,12.1963,1.65948c2.464.41419,2.55241,2.88376,2.57066,3.88058.417,7.96753.5953,16.39977.57842,27.32826-.00279,3.38778-.02948,6.85-.08141,10.52135.02245.00562.0449.01123.0674.01544l2.91321.6725Z" transform="translate(0.00141 -0.001)" fill="#001b3e"/><path d="M159.63232,19.36692l1.34921.3538c-.19936-1.31412-.3791-2.44292-.57422-3.59977ZM168.233,61.59831l-2.6872-.97716c-1.03052-.36082-1.5472-.53772-2.58334-.8845l-1.83919-.61494s-.15725-1.92905-.30464-4.23157c-.2485-4.7398-.63741-9.95975-1.18635-15.914-.03792-.358-.07725-.71743-.11654-1.07544l-2.52713,9.66493,2.25758.61916L156.625,57.72617l-2.84025-.71884c-1.26356-.31869-2.30111-.57281-3.11261-.76937q-.64018-.15585-1.09788-.26956-1.08877-.27168-2.48784-.63179L142.963,54.285l2.18037-9.63263,2.18175.4942L154.512,15.068a7.8,7.8,0,0,1-1.92768-6.513l.66129-2.91463,2.91462.65985c2.64371.5981,4.56431,1.03894,7.09427,1.689l1.85042.47453.34538,1.87853c.77782,4.21611,1.14,6.39649,1.76058,10.60839.48578,3.048.88733,6.082,1.22427,9.02611L171.80334,19.687a8.01835,8.01835,0,0,1-.91262-6.55653l.89715-2.85287,2.85288.89854c4.09957,1.29165,6.58321,2.19019,10.29528,3.55065l2.80657,1.02909-3.42008,9.335-3.05366-1.00946Z" transform="translate(0.00141 -0.001)" fill="#001b3e"/><path d="M187.7683,69.65555a7.33041,7.33041,0,0,1-3.41309-.9182c-.60511-.31589-4.83385-2.32356-4.83385-2.32356a15.99978,15.99978,0,0,1-1.7985-.96453l-.06735.15444-2.7462-1.17653c-1.48679-.6374-2.22386-.94347-3.75277-1.55841L168.3851,61.754l7.16445-17.836,2.77422,1.11476c1.66795.67109,2.53,1.0277,4.18946,1.73952l2.76861,1.18635-1.20881,2.7602q-1.74792,3.99079-2.05822,4.71734c-.25129.58545-.42118,1.00384-.53772,1.29727a23.62855,23.62855,0,0,0,2.28848,1.18073q.973.44859,1.69176.782l2.74757-5.54006c-1.39694-4.63028-3.08168-9.43608-5.01775-14.30223a41.54958,41.54958,0,0,1-1.95012-5.17222l-.01547-.066c-.36783-.96875.44787-3.41165.44787-3.41165.17549-.40293,2.55664-6.94263,2.55664-6.94263.04915-.12074.10108-.25412.15725-.39872.22181-.56721.52507-1.3436.93644-2.18738a5.41812,5.41812,0,0,1,2.35587-2.3306l.26676-.12776a6.99294,6.99294,0,0,1,3.72895-.4619,12.42048,12.42048,0,0,1,3.51271,1.206l.62756.27237c1.11476.48579,2.27866,1.01649,3.45941,1.57527.417.16988,1.19758.49279,2.19858.95049a11.68706,11.68706,0,0,1,2.09336,1.23828l.13334-.271,2.68158,1.33657c1.86872.93083,2.83742,1.42643,4.70472,2.41062l2.64508,1.39413-8.95591,16.98242-2.69706-1.39554c-.30463-.16005-1.02345-.53211-1.78864-.92943l-2.2997-1.19337a3.07052,3.07052,0,0,1-1.54857-4.01115l.04212-.08844c.07159-.14041.18672-.36363.34537-.6669.40575-.77638,1.08529-2.07786,1.98239-3.91848.23587-.48295.41839-.88449.55738-1.206l-.1404-.08284a29.58225,29.58225,0,0,0-3.10276-1.61315c-.53772-.24149-1.29026-.57563-2.25056-.99682l-1.89678,4.40565c-.0084.01825-.01826.04353-.03085.07581,1.99644,4.89424,3.81036,9.95275,5.39123,15.03793a20.43609,20.43609,0,0,1,1.23268,4.71171,8.38523,8.38523,0,0,1-.95893,4.79035L193.18478,66.192a5.71923,5.71923,0,0,1-3.66014,3.1828,5.51786,5.51786,0,0,1-1.75634.28079" transform="translate(0.00141 -0.001)" fill="#001b3e"/><path d="M209.22318,29.08026c-1.55-.81569-2.45977-1.28181-4.021-2.061-.03089.06178-.06178.12215-.09267.18392q-.2295.4612-.59808,1.29025l-.33694.75814L203.874,28.478l-.21337-.549a4.564,4.564,0,0,0-.76377-1.25094,8.96394,8.96394,0,0,0-2.81214-2.06945c-.95332-.43663-1.68619-.73708-2.1509-.928-1.21583-.57564-2.36148-1.09651-3.45375-1.57244l-.61916-.26957a13.76984,13.76984,0,0,0-2.42747-.935,3.89308,3.89308,0,0,0-2.20283.20639,2.11983,2.11983,0,0,0-.91257.84378c-.35382.72444-.61917,1.40256-.82834,1.94028l-.1713.43242L185.315,29.29086c-.31025.76938-.57422,1.37169-.75812,1.79427l-.09267.21341a2.42178,2.42178,0,0,0,.01122,1.40116,41.49536,41.49536,0,0,0,1.79708,4.70752c2.13826,5.373,3.97605,10.66735,5.46425,15.7441l.03792.13058-.06037.12074-3.20949,6.46948-1.37025,2.76442-.15305.30887-.30887-.153-.74693-.36925c-.35236-.17269-1.53735-.73707-3.55063-1.66089a26.23732,26.23732,0,0,1-2.6563-1.3787,2.90209,2.90209,0,0,1-1.498-1.4489,3.0323,3.0323,0,0,1-.24851-1.31551,11.18615,11.18615,0,0,1,.97856-2.68018q.30115-.70129,1.929-4.42109c-1.33374-.57143-2.13543-.90417-3.479-1.4447l-1.07684,2.683q-1.80267,4.48357-3.6026,8.96575c1.22569.49419,1.967.80167,3.18562,1.32254.09546-.22323.19092-.44786.28643-.6711l.35939-.83957.1362-.3159.31728.13479.15583.066.073.1783a4.36473,4.36473,0,0,0,.19237.60652c.37486,1.11335,1.51349,2.08629,3.49305,3.00168.98.42541,4.0224,1.89537,4.97991,2.39518a3.25555,3.25555,0,0,0,2.66754.39311,2.54322,2.54322,0,0,0,1.66648-1.53454l4.42254-8.421a5.0961,5.0961,0,0,0,.56578-3.13506l-.01543-.10951.05052-.09688c-.03509-.04071-.26252-1.02489-1.10491-3.618-1.564-5.029-3.35829-10.02855-5.33511-14.86523a2.32908,2.32908,0,0,1-.24426-1.77321l.06457-.15163.04353-.02527c.08-.23727.15724-.43945.23025-.61073l2.21264-5.13572.87187-2.02733.13621-.3173.31727.13759.57705.24851c2.06383.89573,3.55765,1.557,4.459,1.96134a32.64416,32.64416,0,0,1,3.458,1.79988,3.86239,3.86239,0,0,1,1.2846,1.03052,2.53587,2.53587,0,0,1,.43386,2.68158c-.146.34959-.42263,1.00243-.85645,1.894-.914,1.8743-1.61314,3.21369-2.01889,3.99149l-.16847.32431c.45207.23726,1.36323.7076,2.21264,1.14844.60511.31309,1.17792.60932,1.53594.79606q2.92936-5.5534,5.856-11.10541" transform="translate(0.00141 -0.001)" fill="#75c4f4"/><path d="M209.22318,29.08026c-1.55-.81569-2.45977-1.28181-4.021-2.061-.03089.06178-.06178.12215-.09267.18392q-.2295.4612-.59808,1.29025l-.33694.75814L203.874,28.478l-.21337-.549a4.564,4.564,0,0,0-.76377-1.25094,8.96394,8.96394,0,0,0-2.81214-2.06945c-.95332-.43663-1.68619-.73708-2.1509-.928-1.21583-.57564-2.36148-1.09651-3.45375-1.57244l-.61916-.26957a13.76984,13.76984,0,0,0-2.42747-.935,3.89308,3.89308,0,0,0-2.20283.20639,2.11983,2.11983,0,0,0-.91257.84378c-.35382.72444-.61917,1.40256-.82834,1.94028l-.1713.43242L185.315,29.29086c-.31025.76938-.57422,1.37169-.75812,1.79427l-.09267.21341a2.42178,2.42178,0,0,0,.01122,1.40116,41.49536,41.49536,0,0,0,1.79708,4.70752c2.13826,5.373,3.97605,10.66735,5.46425,15.7441l.03792.13058-.06037.12074-3.20949,6.46948-1.37025,2.76442-.15305.30887-.30887-.153-.74693-.36925c-.35236-.17269-1.53735-.73707-3.55063-1.66089a26.23732,26.23732,0,0,1-2.6563-1.3787,2.90209,2.90209,0,0,1-1.498-1.4489,3.0323,3.0323,0,0,1-.24851-1.31551,11.18615,11.18615,0,0,1,.97856-2.68018q.30115-.70129,1.929-4.42109c-1.33374-.57143-2.13543-.90417-3.479-1.4447l-1.07684,2.683q-1.80267,4.48357-3.6026,8.96575c1.22569.49419,1.967.80167,3.18562,1.32254.09546-.22323.19092-.44786.28643-.6711l.35939-.83957.1362-.3159.31728.13479.15583.066.073.1783a4.36473,4.36473,0,0,0,.19237.60652c.37486,1.11335,1.51349,2.08629,3.49305,3.00168.98.42541,4.0224,1.89537,4.97991,2.39518a3.25555,3.25555,0,0,0,2.66754.39311,2.54322,2.54322,0,0,0,1.66648-1.53454l4.42254-8.421a5.0961,5.0961,0,0,0,.56578-3.13506l-.01543-.10951.05052-.09688c-.03509-.04071-.26252-1.02489-1.10491-3.618-1.564-5.029-3.35829-10.02855-5.33511-14.86523a2.32908,2.32908,0,0,1-.24426-1.77321l.06457-.15163.04353-.02527c.08-.23727.15724-.43945.23025-.61073l2.21264-5.13572.87187-2.02733.13621-.3173.31727.13759.57705.24851c2.06383.89573,3.55765,1.557,4.459,1.96134a32.64416,32.64416,0,0,1,3.458,1.79988,3.86239,3.86239,0,0,1,1.2846,1.03052,2.53587,2.53587,0,0,1,.43386,2.68158c-.146.34959-.42263,1.00243-.85645,1.894-.914,1.8743-1.61314,3.21369-2.01889,3.99149l-.16847.32431c.45207.23726,1.36323.7076,2.21264,1.14844.60511.31309,1.17792.60932,1.53594.79606Q206.29657,34.63227,209.22318,29.08026Z" transform="translate(0.00141 -0.001)" fill="none" stroke="#fff" stroke-width="0.491"/><path d="M182.33212,20.64312q.20212-.55175.40434-1.10351.36222-.9898.72585-1.98241c-3.3864-1.2397-5.76893-2.09893-9.47962-3.27406-.292,1.41241.1081,3.50431,1.38571,3.95218l.3201.11093-.10527.32149-5.66082,17.2955q-1.07406,3.28739-2.61136,7.87066l-.02811.08423-.06457.059a2.92633,2.92633,0,0,1-.12918.424l-.67109-.08425c-.09405-1.46152-.16427-2.33619-.19234-2.62261-.497-6.04689-1.16107-13.19731-2.31654-20.43617-.61072-4.14593-.95049-6.20555-1.69879-10.27705-2.25621-.577-4.0589-.99261-6.42459-1.52893-.09829,1.40819.89856,3.48606,2.19019,3.86653l.31312.09268-.07584.31868-8.33675,34.89566-.08.33555-.33557-.08-.63034-.14883q-.5855-.13689-1.17376-.271-.26742,1.17932-.53489,2.36007l-.19233.85221q.45906.11793.91818.23446c.95049.24288,1.79288.45909,2.53.643l1.08528.26534c.74689.18253,1.68332.41137,2.80931.69357.03372-.12636.06881-.25131.1039-.37766q.38329-1.39836.768-2.79812c-.497-.13619-.83678-.22745-1.418-.38047l-.469-.12356-.33415-.087.08706-.33274,5.32242-20.36036.73571-2.81076,1.00525-3.84687.087-.33274.33415.08565.33274.087-.05056.34257c.89715,5.28735,1.61319,10.63086,2.172,15.907.55455,6.0118.94625,11.27247,1.199,16.09089.0267.69357.06037,1.5205.08287,1.89115.81008.271,1.31271.44365,2.0919.716q2.5566-7.28238,5.11325-14.56618L179.388,19.958l.11371-.32572.32571.11513c1.0151.35661,1.557.55035,2.50472.89571" transform="translate(0.00141 -0.001)" fill="#75c4f4"/><path d="M182.33212,20.64312q.20212-.55175.40434-1.10351.36222-.9898.72585-1.98241c-3.3864-1.2397-5.76893-2.09893-9.47962-3.27406-.292,1.41241.1081,3.50431,1.38571,3.95218l.3201.11093-.10527.32149-5.66082,17.2955q-1.07406,3.28739-2.61136,7.87066l-.02811.08423-.06457.059a2.92633,2.92633,0,0,1-.12918.424l-.67109-.08425c-.09405-1.46152-.16427-2.33619-.19234-2.62261-.497-6.04689-1.16107-13.19731-2.31654-20.43617-.61072-4.14593-.95049-6.20555-1.69879-10.27705-2.25621-.577-4.0589-.99261-6.42459-1.52893-.09829,1.40819.89856,3.48606,2.19019,3.86653l.31312.09268-.07584.31868-8.33675,34.89566-.08.33555-.33557-.08-.63034-.14883q-.5855-.13689-1.17376-.271-.26742,1.17932-.53489,2.36007l-.19233.85221q.45906.11793.91818.23446c.95049.24288,1.79288.45909,2.53.643l1.08528.26534c.74689.18253,1.68332.41137,2.80931.69357.03372-.12636.06881-.25131.1039-.37766q.38329-1.39836.768-2.79812c-.497-.13619-.83678-.22745-1.418-.38047l-.469-.12356-.33415-.087.08706-.33274,5.32242-20.36036.73571-2.81076,1.00525-3.84687.087-.33274.33415.08565.33274.087-.05056.34257c.89715,5.28735,1.61319,10.63086,2.172,15.907.55455,6.0118.94625,11.27247,1.199,16.09089.0267.69357.06037,1.5205.08287,1.89115.81008.271,1.31271.44365,2.0919.716q2.5566-7.28238,5.11325-14.56618L179.388,19.958l.11371-.32572.32571.11513C180.8425,20.104,181.38442,20.29776,182.33212,20.64312Z" transform="translate(0.00141 -0.001)" fill="none" stroke="#fff" stroke-width="0.491"/><path d="M138.3846,36.23139c-2.92585-.53631-4.54324-.79886-7.48875-1.21443.67251-2.0877,1.26078-3.83284,1.75213-5.234,1.94031-5.58218,3.71631-10.56487,5.40388-15.1741.21483,6.74608.32434,13.84454.33274,21.62253m4.57417,11.50974-.47178-.10249-.27657-.06037.0042-.28359c.07725-4.54747.11654-8.7692.12079-12.9067.01683-10.88216-.16149-19.27089-.577-27.19909-.007-.40155-.02108-.629-.03231-.75815-3.20944-.556-6.06233-1.01367-8.51225-1.36466-.01684.85784.47735,3.26283,2.51449,3.70228l.39174.08423-.14182.37486c-2.5075,6.60427-4.935,13.29979-7.21642,19.90407-1.31691,3.88618-2.70683,8.03912-3.94515,12.296a19.3281,19.3281,0,0,1-1.12175,2.94693l-.11234.23025-.25129-.03931c-.36783-.05756-.93785-.12917-1.71006-.20779q-.14106,1.43836-.28077,2.87532c2.95816.28922,4.55588.48157,7.49578.89855q.0948-.66759.19234-1.33658.10744-.76024.21761-1.5219c-.5321-.07582-.94908-.132-1.2481-.17129l-.47734-.06458-.3875-.05055.09966-.37906c.403-1.52753.921-3.24036,1.54018-5.0922.21058-.86625.2934-1.2004.66685-1.14985,3.72895.511,5.54149.80587,9.23814,1.498l.28218.05195-.00141.28781c-.014,3.44956-.07438,5.86016-.15725,6.2926l-.066.33975-.344-.0351-.41137-.07862c-.31727-.06037-.63737-.11934-.95469-.17971q-.25906,1.40889-.51667,2.81636c.23586.04915.47314.09688.71042.146l1.432.28922c2.13264.42118,3.25019.65987,5.26912,1.12317q.3243-1.40678.6486-2.815-.98981-.22533-1.61031-.36082" transform="translate(0.00141 -0.001)" fill="#75c4f4"/><path d="M138.3846,36.23139c-2.92585-.53631-4.54324-.79886-7.48875-1.21443.67251-2.0877,1.26078-3.83284,1.75213-5.234,1.94031-5.58218,3.71631-10.56487,5.40388-15.1741C138.26669,21.35494,138.3762,28.4534,138.3846,36.23139Zm4.57417,11.50974-.47178-.10249-.27657-.06037.0042-.28359c.07725-4.54747.11654-8.7692.12079-12.9067.01683-10.88216-.16149-19.27089-.577-27.19909-.007-.40155-.02108-.629-.03231-.75815-3.20944-.556-6.06233-1.01367-8.51225-1.36466-.01684.85784.47735,3.26283,2.51449,3.70228l.39174.08423-.14182.37486c-2.5075,6.60427-4.935,13.29979-7.21642,19.90407-1.31691,3.88618-2.70683,8.03912-3.94515,12.296a19.3281,19.3281,0,0,1-1.12175,2.94693l-.11234.23025-.25129-.03931c-.36783-.05756-.93785-.12917-1.71006-.20779q-.14106,1.43836-.28077,2.87532c2.95816.28922,4.55588.48157,7.49578.89855q.0948-.66759.19234-1.33658.10744-.76024.21761-1.5219c-.5321-.07582-.94908-.132-1.2481-.17129l-.47734-.06458-.3875-.05055.09966-.37906c.403-1.52753.921-3.24036,1.54018-5.0922.21058-.86625.2934-1.2004.66685-1.14985,3.72895.511,5.54149.80587,9.23814,1.498l.28218.05195-.00141.28781c-.014,3.44956-.07438,5.86016-.15725,6.2926l-.066.33975-.344-.0351-.41137-.07862c-.31727-.06037-.63737-.11934-.95469-.17971q-.25906,1.40889-.51667,2.81636c.23586.04915.47314.09688.71042.146l1.432.28922c2.13264.42118,3.25019.65987,5.26912,1.12317q.3243-1.40678.6486-2.815Q143.57928,47.87662,142.95877,47.74113Z" transform="translate(0.00141 -0.001)" fill="none" stroke="#fff" stroke-width="0.491"/><path d="M122.12794,16.892q.33483-2.95465.67109-5.90931.37693-3.32737.75533-6.65621c-1.70021-.19094-2.69843-.29343-4.40287-.44926q-.07372.8192-.14881,1.637l-.073.82272-.53351-.63178-.42117-.497a5.22493,5.22493,0,0,0-1.27762-.8859,8.68827,8.68827,0,0,0-2.95537-.78483l-1.206-.07862c-2.30536-.14321-3.45941-.20078-5.76751-.285-.79466-.02948-1.27762-.02245-1.42222-.01825a5.71547,5.71547,0,0,0-1.7634.23306,7.087,7.087,0,0,0-.70482.36082,2.36778,2.36778,0,0,0-1.1007,1.69037l.04353.03512-.0084.17688q-.05058.97085-.059,1.54577l-.47173,36.42458a2.36912,2.36912,0,0,0,.87748,1.77883,2.98308,2.98308,0,0,0,1.79288.7778c.02387-.02106.04773-.04352.0716-.06458l.24709.08143,1.52471.07441,1.411.0688,1.199.05615c1.29167.059,2.62263.11793,3.93675.23166.30888.02668.62195.059.935.09126.30605.03229.61214.06458.91257.08986a10.68613,10.68613,0,0,0,2.49346.03368,2.81483,2.81483,0,0,0,1.543-.85922c.31731-.25974.702-.9182.90837-2.73353l.82414-7.2515q.1221-1.08036.24567-2.16071c-1.44047-.16146-2.29687-.2499-3.73032-.38047q-.27378,3.01572-.54615,6.03144l-.3833,4.226-.01264.14742-.1165.09126-.11093.08705-.17408.014c-1.52612-.15865-2.76021-.26254-3.69527-.32712-2.53133-.17831-3.76683-.24289-6.29961-.33415l-.34538-.01263.01264-.344,1.31134-36.70957.014-.3875.38188.05756.26959.04071.19233.00561.67671.02386c1.08948.03931,2.54962.09268,4.36212.19375a30.41532,30.41532,0,0,1,3.56048.40014,3.9243,3.9243,0,0,1,2.17194.848,3.50808,3.50808,0,0,1,.7441,1.18355,15.584,15.584,0,0,1-.08,3.40322q-.1137,1.26989-.42962,4.37476c1.60333.146,2.54962.24289,4.15017.42259" transform="translate(0.00141 -0.001)" fill="#75c4f4"/><path d="M122.12794,16.892q.33483-2.95465.67109-5.90931.37693-3.32737.75533-6.65621c-1.70021-.19094-2.69843-.29343-4.40287-.44926q-.07372.8192-.14881,1.637l-.073.82272-.53351-.63178-.42117-.497a5.22493,5.22493,0,0,0-1.27762-.8859,8.68827,8.68827,0,0,0-2.95537-.78483l-1.206-.07862c-2.30536-.14321-3.45941-.20078-5.76751-.285-.79466-.02948-1.27762-.02245-1.42222-.01825a5.71547,5.71547,0,0,0-1.7634.23306,7.087,7.087,0,0,0-.70482.36082,2.36778,2.36778,0,0,0-1.1007,1.69037l.04353.03512-.0084.17688q-.05058.97085-.059,1.54577l-.47173,36.42458a2.36912,2.36912,0,0,0,.87748,1.77883,2.98308,2.98308,0,0,0,1.79288.7778c.02387-.02106.04773-.04352.0716-.06458l.24709.08143,1.52471.07441,1.411.0688,1.199.05615c1.29167.059,2.62263.11793,3.93675.23166.30888.02668.62195.059.935.09126.30605.03229.61214.06458.91257.08986a10.68613,10.68613,0,0,0,2.49346.03368,2.81483,2.81483,0,0,0,1.543-.85922c.31731-.25974.702-.9182.90837-2.73353l.82414-7.2515q.1221-1.08036.24567-2.16071c-1.44047-.16146-2.29687-.2499-3.73032-.38047q-.27378,3.01572-.54615,6.03144l-.3833,4.226-.01264.14742-.1165.09126-.11093.08705-.17408.014c-1.52612-.15865-2.76021-.26254-3.69527-.32712-2.53133-.17831-3.76683-.24289-6.29961-.33415l-.34538-.01263.01264-.344,1.31134-36.70957.014-.3875.38188.05756.26959.04071.19233.00561.67671.02386c1.08948.03931,2.54962.09268,4.36212.19375a30.41532,30.41532,0,0,1,3.56048.40014,3.9243,3.9243,0,0,1,2.17194.848,3.50808,3.50808,0,0,1,.7441,1.18355,15.584,15.584,0,0,1-.08,3.40322q-.1137,1.26989-.42962,4.37476C119.5811,16.61543,120.52739,16.7123,122.12794,16.892Z" transform="translate(0.00141 -0.001)" fill="none" stroke="#fff" stroke-width="0.491"/><path d="M87.86745,47.40305c3.253-.3538,5.00653-.50261,8.27077-.70057-.00141-.03931-.00424-.07862-.007-.11653q-.0948-1.58368-.18814-3.16315c-.7848.04634-1.27762.08-2.1551.14462l-.344.02526-.02528-.344L90.7891,7.43768l-.01825-.23306.2836-.16849c1.15825-.10669,1.74793-.14881,2.69842-.20778Q93.70442,6.01544,93.656,5.204q-.04847-.81291-.09688-1.62439c-4.18521.25131-6.73483.44084-10.81336.88309a3.54109,3.54109,0,0,0,3.40041,2.96658l.31731-.00281.02948.31449.50262,5.227L89.9369,43.545l.03368.34257-.344.0337c-.85361.08142-1.33237.12916-2.09331.2134q.09473,1.08877.16144,1.696.08639.78554.17271,1.57244" transform="translate(0.00141 -0.001)" fill="#75c4f4"/><path d="M87.86745,47.40305c3.253-.3538,5.00653-.50261,8.27077-.70057-.00141-.03931-.00424-.07862-.007-.11653q-.0948-1.58368-.18814-3.16315c-.7848.04634-1.27762.08-2.1551.14462l-.344.02526-.02528-.344L90.7891,7.43768l-.01825-.23306.2836-.16849c1.15825-.10669,1.74793-.14881,2.69842-.20778Q93.70442,6.01544,93.656,5.204q-.04847-.81291-.09688-1.62439c-4.18521.25131-6.73483.44084-10.81336.88309a3.54109,3.54109,0,0,0,3.40041,2.96658l.31731-.00281.02948.31449.50262,5.227L89.9369,43.545l.03368.34257-.344.0337c-.85361.08142-1.33237.12916-2.09331.2134q.09473,1.08877.16144,1.696Q87.78113,46.61615,87.86745,47.40305Z" transform="translate(0.00141 -0.001)" fill="none" stroke="#fff" stroke-width="0.491"/><path d="M79.294,41.47633q.08207.58546.16285,1.17092l.36925,2.63665.04631.34257-.34118.04774c-2.53132.35379-3.764.54754-6.28135.987l-.33977.059-.059-.33976L66.59925,10.648l-.05895-.33977.33976-.059c.914-.16005,3.1154-.53913,4.18381-.716q-.14107-.87186-.2836-1.74371-.12423-.76657-.24851-1.53035c-3.06064.49982-8.40976,1.404-12.65958,2.28426a3.57352,3.57352,0,0,0,3.55765,2.67175.67043.67043,0,0,1,.14465-.01683,1.31453,1.31453,0,0,0,.299-.04354l.36084-.10529.07438.36925,6.99457,35.22.0674.33836-.33836.06739c-1.60474.31729-2.45836.497-3.95637.82975q.18323.82133.36783,1.644.16639.74973.33557,1.50225c3.15049-.71462,6.18448-1.31411,9.26338-1.828,3.48186-.584,5.24521-.83677,8.63864-1.23409q-.1538-1.32042-.3075-2.64087-.25059-2.14806-.4998-4.299c-1.37732.16145-2.207.26676-3.5801.45769" transform="translate(0.00141 -0.001)" fill="#75c4f4"/><path d="M79.294,41.47633q.08207.58546.16285,1.17092l.36925,2.63665.04631.34257-.34118.04774c-2.53132.35379-3.764.54754-6.28135.987l-.33977.059-.059-.33976L66.59925,10.648l-.05895-.33977.33976-.059c.914-.16005,3.1154-.53913,4.18381-.716q-.14107-.87186-.2836-1.74371-.12423-.76657-.24851-1.53035c-3.06064.49982-8.40976,1.404-12.65958,2.28426a3.57352,3.57352,0,0,0,3.55765,2.67175.67043.67043,0,0,1,.14465-.01683,1.31453,1.31453,0,0,0,.299-.04354l.36084-.10529.07438.36925,6.99457,35.22.0674.33836-.33836.06739c-1.60474.31729-2.45836.497-3.95637.82975q.18323.82133.36783,1.644.16639.74973.33557,1.50225c3.15049-.71462,6.18448-1.31411,9.26338-1.828,3.48186-.584,5.24521-.83677,8.63864-1.23409q-.1538-1.32042-.3075-2.64087-.25059-2.14806-.4998-4.299C81.49676,41.18009,80.66705,41.2854,79.294,41.47633Z" transform="translate(0.00141 -0.001)" fill="none" stroke="#fff" stroke-width="0.491"/><path d="M57.39667,33.928c-.24713-.9575-.46333-1.81954-.65708-2.5861l-.25553-1.01507q-.31376-1.23408-.70477-2.70545-1.1499.26535-2.30112.5321l-.34255.07862.19092.80869.11234.46332.08141.33554-.33552.08143c-.16428.03931-.33137.09126-.49984.14742-2.07789.54333-3.91426,1.06561-6.798,1.93467l-.32991.09968-.14319-.34819L43.64336,25.8833l-2.90061-9.62141-.09966-.32991.32991-.09971c3.2193-.97013,4.79877-1.41378,8.05037-2.26319l.33416-.087.08706.33416q.46119,1.77111.9238,3.54362c.20917-.05336.41838-.10812.62614-.16146,1.34785-.34538,2.07087-.52369,3.33584-.82553-.05475-.30749-.22742-1.04176-.47314-2.09193l-.42259-1.8083c-.21341-.92663-.46612-1.81675-.74689-2.6465.0084.01686.00138.00984-.0323-.01964-2.01611.44786-5.03883,1.14844-8.53333,2.13123l-2.13123.59528c-3.44532.9603-6.18727,1.72407-9.8376,2.99888.65,1.293,2.478,2.69842,4.02519,2.19158l.32712-.10669.1081.32713q3.09787,9.382,6.176,18.76965l5.10345,15.61214.10668.32853-.32712.1067-.2162.0702-.41278.13619c-.8115.26534-1.8392.6023-3.08592,1.02349q.26112.7371.52087,1.47557.25908.73709.52088,1.47558c3.59557-1.265,5.47547-1.86728,9.24093-2.96378,2.24074-.65285,4.34528-1.2355,6.433-1.77884.17266-.02527.86064-.18953,1.81254-.41557.07862-.01966.15862-.03791.23724-.05756a3.19176,3.19176,0,0,0-.10527-.37205l-.0632-.073.014-.08424c-.01264-.08-.04211-.26676-.10107-.54193-.43947-2.10736-.83536-3.6433-1.07264-4.5615l-.16847-.66688c-.04212-.1769-.08424-.3524-.1264-.52789-1.279.30606-2.05539.49841-3.3316.83115q.36852,1.40888.73708,2.81916l.09546.36784c.01405.05617.066.21341.15446.47033l.12074.3524-.35944.09266c-2.71667.709-4.035,1.07965-6.72078,1.88975l-.32995.09827-.09966-.32993-2.80233-9.29006-1.50787-4.99954-.47593-1.58227-.11513-.38047-.0997-.32994.33-.09968c2.3081-.69637,3.97882-1.18074,5.72817-1.64967.46753-.10248.95469-.219,1.49665-.36363l.33132-.08844.08985.33274.11654.43382c.132.48718.212.77921.32713,1.18776q.72656-.20427,1.45311-.40715.57912-.16425,1.15829-.32573" transform="translate(0.00141 -0.001)" fill="#75c4f4"/><path d="M57.39667,33.928c-.24713-.9575-.46333-1.81954-.65708-2.5861l-.25553-1.01507q-.31376-1.23408-.70477-2.70545-1.1499.26535-2.30112.5321l-.34255.07862.19092.80869.11234.46332.08141.33554-.33552.08143c-.16428.03931-.33137.09126-.49984.14742-2.07789.54333-3.91426,1.06561-6.798,1.93467l-.32991.09968-.14319-.34819L43.64336,25.8833l-2.90061-9.62141-.09966-.32991.32991-.09971c3.2193-.97013,4.79877-1.41378,8.05037-2.26319l.33416-.087.08706.33416q.46119,1.77111.9238,3.54362c.20917-.05336.41838-.10812.62614-.16146,1.34785-.34538,2.07087-.52369,3.33584-.82553-.05475-.30749-.22742-1.04176-.47314-2.09193l-.42259-1.8083c-.21341-.92663-.46612-1.81675-.74689-2.6465.0084.01686.00138.00984-.0323-.01964-2.01611.44786-5.03883,1.14844-8.53333,2.13123l-2.13123.59528c-3.44532.9603-6.18727,1.72407-9.8376,2.99888.65,1.293,2.478,2.69842,4.02519,2.19158l.32712-.10669.1081.32713q3.09787,9.382,6.176,18.76965l5.10345,15.61214.10668.32853-.32712.1067-.2162.0702-.41278.13619c-.8115.26534-1.8392.6023-3.08592,1.02349q.26112.7371.52087,1.47557.25908.73709.52088,1.47558c3.59557-1.265,5.47547-1.86728,9.24093-2.96378,2.24074-.65285,4.34528-1.2355,6.433-1.77884.17266-.02527.86064-.18953,1.81254-.41557.07862-.01966.15862-.03791.23724-.05756a3.19176,3.19176,0,0,0-.10527-.37205l-.0632-.073.014-.08424c-.01264-.08-.04211-.26676-.10107-.54193-.43947-2.10736-.83536-3.6433-1.07264-4.5615l-.16847-.66688c-.04212-.1769-.08424-.3524-.1264-.52789-1.279.30606-2.05539.49841-3.3316.83115q.36852,1.40888.73708,2.81916l.09546.36784c.01405.05617.066.21341.15446.47033l.12074.3524-.35944.09266c-2.71667.709-4.035,1.07965-6.72078,1.88975l-.32995.09827-.09966-.32993-2.80233-9.29006-1.50787-4.99954-.47593-1.58227-.11513-.38047-.0997-.32994.33-.09968c2.3081-.69637,3.97882-1.18074,5.72817-1.64967.46753-.10248.95469-.219,1.49665-.36363l.33132-.08844.08985.33274.11654.43382c.132.48718.212.77921.32713,1.18776q.72656-.20427,1.45311-.40715Q56.8175,34.08951,57.39667,33.928Z" transform="translate(0.00141 -0.001)" fill="none" stroke="#fff" stroke-width="0.491"/><path d="M30.48676,39.99867c-2.21405.87467-3.3906,1.36185-5.67625,2.35025-.85083.36642-2.13967.928-3.85813,1.71283Q17.545,36.62984,14.13614,29.19933q-.48864-1.06771-.98-2.13683c3.4397-1.571,6.95948-3.07049,10.4736-4.46321q3.42847,8.69967,6.857,17.39938m4.73981-.57564c-.5995-1.84761-1.2355-3.49026-1.748-4.81139-.22181-.57142-.42258-1.08948-.591-1.54859L29.71879,24.4483,28.041,19.88681a2.2119,2.2119,0,0,0-1.36746-1.3071,4.17535,4.17535,0,0,0-2.72791.08705c-.403.15585-.74834.299-1.14286.46331l-.76514.31729c-4.942,2.02594-7.997,3.31618-9.91061,4.18524-2.5749,1.16951-5.154,2.4429-7.67132,3.7865.83961,1.20882,2.96381,2.207,3.69806,1.849l.31029-.15023.15163.30888L24.26856,61.57346l.15163.31028-.31029.15163-.4731.23025c-.55177.271-.8747.431-1.34643.66829q.34538.68865.69217,1.37589.39378.78341.78764,1.56683,1.60047-.76025,2.87529-1.35483l1.11759-.52368q1.3731-.64653,3.0073-1.44047-.66969-1.50366-1.34219-3.00871-.46968.2127-.94209.4254l-.50824.23165-.31307.14462-.14461-.31449-5.585-12.17663L21.792,47.5464l.31307-.1446a2.80728,2.80728,0,0,0,.271-.15444c3.36249-1.51769,5.71836-2.48222,6.98475-3.00028l.51385-.2106,1.0319-.4254c1.42646-.58686,2.47661-1.02069,2.69281-1.1302l.0267-.01825a4.93239,4.93239,0,0,0,1.08806-1.02349,3.2624,3.2624,0,0,0,.49423-.97155,2.34251,2.34251,0,0,0,.01825-1.04456" transform="translate(0.00141 -0.001)" fill="#75c4f4"/><path d="M30.48676,39.99867c-2.21405.87467-3.3906,1.36185-5.67625,2.35025-.85083.36642-2.13967.928-3.85813,1.71283Q17.545,36.62984,14.13614,29.19933q-.48864-1.06771-.98-2.13683c3.4397-1.571,6.95948-3.07049,10.4736-4.46321Q27.05825,31.299,30.48676,39.99867Zm4.73981-.57564c-.5995-1.84761-1.2355-3.49026-1.748-4.81139-.22181-.57142-.42258-1.08948-.591-1.54859L29.71879,24.4483,28.041,19.88681a2.2119,2.2119,0,0,0-1.36746-1.3071,4.17535,4.17535,0,0,0-2.72791.08705c-.403.15585-.74834.299-1.14286.46331l-.76514.31729c-4.942,2.02594-7.997,3.31618-9.91061,4.18524-2.5749,1.16951-5.154,2.4429-7.67132,3.7865.83961,1.20882,2.96381,2.207,3.69806,1.849l.31029-.15023.15163.30888L24.26856,61.57346l.15163.31028-.31029.15163-.4731.23025c-.55177.271-.8747.431-1.34643.66829q.34538.68865.69217,1.37589.39378.78341.78764,1.56683,1.60047-.76025,2.87529-1.35483l1.11759-.52368q1.3731-.64653,3.0073-1.44047-.66969-1.50366-1.34219-3.00871-.46968.2127-.94209.4254l-.50824.23165-.31307.14462-.14461-.31449-5.585-12.17663L21.792,47.5464l.31307-.1446a2.80728,2.80728,0,0,0,.271-.15444c3.36249-1.51769,5.71836-2.48222,6.98475-3.00028l.51385-.2106,1.0319-.4254c1.42646-.58686,2.47661-1.02069,2.69281-1.1302l.0267-.01825a4.93239,4.93239,0,0,0,1.08806-1.02349,3.2624,3.2624,0,0,0,.49423-.97155A2.34251,2.34251,0,0,0,35.22657,39.423Z" transform="translate(0.00141 -0.001)" fill="none" stroke="#fff" stroke-width="0.491"/></g></svg>