<?xml version="1.0" encoding="UTF-8" standalone="no"?>
<!-- Created with Inkscape (http://www.inkscape.org/) -->
<svg
   xmlns:svg="http://www.w3.org/2000/svg"
   xmlns="http://www.w3.org/2000/svg"
   version="1.0"
   width="836.96198"
   height="1026.126"
   viewBox="0 0 836.962 1026.126"
   id="Layer_1"
   xml:space="preserve"><defs
   id="defs26" />
<path
   d="M 816.912,120.065 C 831.931,476.306 741.983,824.487 415.779,1004.646 C 108.686,809.46 -12.925,479.034 25.295,120.065 L 421.104,19.075 L 816.912,120.065 z "
   style="fill:none;stroke:#ffffff;stroke-width:36.96699905;stroke-miterlimit:3.86400008"
   id="path3" />
<path
   d="M 816.912,120.082 C 831.915,476.307 741.983,824.488 415.779,1004.646 C 108.686,809.477 -12.942,479.051 25.295,120.082 L 421.087,19.076 L 816.912,120.082"
   style="fill:#0c2576"
   id="path5" />
<path
   d="M 283.241,233.806 C 235.095,292.057 203.579,304.274 228.145,373.887 C 234.98,397.089 264.246,409.725 284.703,419.28 C 296.288,425.96 547.891,420.406 566.557,420.02 C 598.484,412.502 615.097,373.395 615.097,343.382 C 609.625,286.051 595.806,273.333 552.114,231.029 L 552.114,106.436 C 702.251,238.818 748.671,458.569 676.322,644.199 C 651.757,704.249 616.297,772.802 553.51,812.378 C 553.51,812.378 554.858,713.171 552.114,680.406 C 597.17,636.747 629.212,620.135 607.374,550.529 C 596.447,520.492 580.541,520.779 551.868,512.58 L 269.751,508.431 C 245.185,517.986 234.932,529.628 225.385,554.194 C 210.908,623.486 239.335,636.656 283.011,681.704 L 283.241,822.434 C 150.85,702.333 93.52,503.616 142.651,326.186 C 168.597,245.654 217.728,170.881 283.241,105.375 L 283.241,233.806"
   style="fill:#ff6600"
   id="path7" />
<path
   d="M 257.87,345.92 C 258.034,322.85 276.865,304.274 299.952,304.43 C 323.022,304.594 341.606,323.442 341.442,346.512 C 341.295,369.599 322.447,388.167 299.377,388.002 C 276.29,387.854 257.706,369.007 257.87,345.92"
   style="fill:#ffffff"
   id="path9" />
<path
   d="M 494.537,347.875 C 494.701,324.789 513.532,306.212 536.619,306.36 C 559.706,306.532 578.29,325.372 578.109,348.442 C 577.962,371.528 559.114,390.105 536.044,389.94 C 512.957,389.785 494.39,370.938 494.537,347.875"
   style="fill:#ffffff"
   id="path11" />
<path
   d="M 496.427,581.692 C 496.575,558.605 515.422,540.029 538.509,540.193 C 561.579,540.349 580.147,559.188 579.999,582.275 C 579.851,605.345 561.004,623.921 537.917,623.774 C 514.847,623.601 496.263,604.77 496.427,581.692"
   style="fill:#ffffff"
   id="path13" />
<path
   d="M 255.98,581.741 C 256.128,558.671 274.975,540.078 298.045,540.242 C 321.132,540.414 339.699,559.237 339.552,582.324 C 339.388,605.395 320.557,623.987 297.47,623.823 C 274.384,623.65 255.816,604.828 255.98,581.741"
   style="fill:#ffffff"
   id="path15" />
<path
   d="M 249.079,300.947 C 233.732,320.986 227.06,343.333 237.856,371.111 C 257.788,422.312 302.515,412.84 382.8,412.724 L 382.8,283.833 L 451.123,283.866 L 451.37,412.724 C 522.108,412.453 557.979,418.139 580.721,398.051 C 596.66,383.985 609.149,353.866 601.228,326.72 C 589.89,287.916 551.868,279.577 551.868,279.577 L 552.114,221.088 C 599.882,262.027 633.698,325.085 613.01,378.628 C 604.893,399.71 585.602,421.688 562.531,426.099 C 548.646,428.753 297.223,429.139 280.906,426.485 C 250.573,421.539 225.466,397.023 218.432,366.485 C 205.632,311.036 242.291,259.3 283.24,221.089 C 282.566,236.683 283.24,278.181 283.24,278.181 C 277.128,279.725 262.718,283.143 249.079,300.947"
   style="fill:#ffffff"
   id="path17" />
<rect
   width="40.389999"
   height="115.334"
   x="396.89899"
   y="296.009"
   style="fill:#ff6600"
   id="rect19" />
<path
   d="M 537.408,501.998 C 587.656,502.154 612.763,528.856 620.059,557.562 C 633.221,609.231 595.542,657.558 551.868,687.595 L 551.868,647.124 C 563.666,642.77 594.409,626.937 602.675,596.547 C 608.311,575.884 604.401,548.861 585.981,534.779 C 551.869,508.727 499.287,519.9 452.883,517.173 L 456.761,906.672 L 417.637,941.721 L 379.154,905.086 L 382.424,517.173 C 350.021,517.65 310.88,515.431 276.751,519.531 C 255.719,522.053 234.752,545.666 232.32,573.616 C 229.789,602.651 243.904,621.432 252.35,629.427 C 261.009,637.602 275.026,644.248 283.242,648.471 L 283.012,690.504 C 240.7,657.747 202.102,613.439 217.12,554.753 C 234.521,508.309 258.61,500.709 318.077,502.155 L 537.408,501.998"
   style="fill:#ffffff"
   id="path21" />
<polyline
   fill="#FF6600"
   points="437.272,518.117 396.899,518.117 396.899,896.64 418.59,917.302 439.244,896.64 437.272,518.117   "
   id="polyline23"
   style="fill:#ff6600" />
</svg>